<svg xmlns="http://www.w3.org/2000/svg" width="57" height="93" viewBox="0 0 57 93" fill="none">
<path d="M50.389 90.0412L11.8289 68.3078C10.2643 67.428 8.9628 66.1461 8.05896 64.5948C7.15512 63.0435 6.68168 61.2789 6.68755 59.4833V4.8388C6.68792 3.99414 6.90911 3.16427 7.32931 2.43165C7.74951 1.69903 8.35407 1.08917 9.08282 0.662622C9.81156 0.236075 10.6391 0.00769395 11.4834 0.000191035C12.3277 -0.00731188 13.1593 0.206313 13.8955 0.619841L52.9092 22.6222C54.0768 23.2807 55.0484 24.2379 55.7245 25.3957C56.4006 26.5535 56.7569 27.8703 56.7569 29.2112V86.3601C56.7507 87.1033 56.5508 87.8319 56.1768 88.474C55.8028 89.1161 55.2678 89.6495 54.6246 90.0213C53.9814 90.3931 53.2522 90.5905 52.5094 90.594C51.7665 90.5975 51.0356 90.407 50.389 90.0412Z" fill="#3F85CD"/>
<path d="M10.2327 0.182861L2.58789 2.68733L9.35902 5.00691L10.2327 0.182861Z" fill="#3F85CD"/>
<path d="M53.8842 90.3607L46.5586 92.6635L47.4323 82.6792L53.8842 90.3607Z" fill="#3F85CD"/>
<path d="M43.7015 92.2433L5.14136 70.3923C3.57921 69.5138 2.27941 68.2347 1.37572 66.6866C0.472035 65.1385 -0.00287241 63.3773 1.30708e-05 61.5846V6.99049C-0.00172678 6.14532 0.218509 5.31453 0.638695 4.5813C1.05888 3.84807 1.66431 3.23812 2.39425 2.81257C3.12419 2.38703 3.95309 2.16081 4.79792 2.15656C5.64275 2.1523 6.47387 2.37019 7.20805 2.78836L46.2218 24.7907C47.3905 25.4479 48.3631 26.4048 49.0394 27.5629C49.7156 28.721 50.0711 30.0385 50.0694 31.3797V88.4446C50.0839 89.1977 49.8992 89.9413 49.5336 90.5998C49.1681 91.2583 48.635 91.8083 47.9883 92.1941C47.3416 92.5799 46.6045 92.7877 45.8516 92.7963C45.0987 92.8049 44.3569 92.6142 43.7015 92.2433Z" fill="#9BCCEA"/>
<path d="M7.02327 27.4128L6.75449 32.0352L6.46888 34.4052C6.9609 34.0732 7.53486 33.8834 8.12773 33.8567C8.72061 33.83 9.30941 33.9675 9.82924 34.2539C12.1479 35.4809 13.0216 38.0527 12.8367 41.4144L12.3495 49.8186L9.17395 48.1378L9.62763 40.305C9.74524 38.372 9.35878 37.5484 8.45148 37.0777C8.12176 36.9023 7.74557 36.8339 7.37522 36.8821C7.00487 36.9303 6.65867 37.0927 6.38479 37.3467L5.86394 46.4065L2.68848 44.7256L3.79735 25.7656L7.02327 27.4128Z" fill="#3F85CD"/>
<path d="M19.6581 36.0187L19.4564 39.599L22.0272 40.9268L21.8423 44.07L19.2716 42.7254L18.9524 48.1209C18.8465 48.6689 18.9104 49.2361 19.1356 49.7468C19.3608 50.2575 19.7366 50.6872 20.2125 50.9784C20.537 51.1427 20.8913 51.2399 21.2542 51.2641L21.5903 54.4409C20.742 54.3394 19.9209 54.0769 19.1708 53.6677C16.533 52.2894 15.6089 49.6169 15.8105 46.5073L16.1297 41.0613L14.668 40.3049L14.8359 37.3298L16.5161 38.0358L17.0874 34.6741L19.6581 36.0187Z" fill="#3F85CD"/>
<path d="M36.5945 48.2386C38.8964 49.4488 39.8205 52.0709 39.6188 55.4662L39.1483 63.8705L35.9729 62.1896L36.4265 54.3064C36.5273 52.3566 36.1409 51.5162 35.2504 51.0456C34.9361 50.9019 34.5851 50.8588 34.2453 50.9219C33.9056 50.9851 33.5936 51.1516 33.3518 51.3986L32.831 60.5256L29.6554 58.8447L30.1091 50.9784C30.2099 49.0286 29.8402 48.2049 28.9329 47.7343C28.6186 47.5907 28.2676 47.5475 27.9278 47.6107C27.5881 47.6738 27.2761 47.8403 27.0343 48.0873L26.4966 57.1975L23.3379 55.5166L24.1108 42.0698L26.6983 43.4145L26.8327 45.2634H26.9167C27.3683 44.859 27.9351 44.6059 28.5376 44.5396C29.1401 44.4733 29.7483 44.5971 30.277 44.8936C30.9973 45.2893 31.6229 45.837 32.1103 46.4988C32.5978 47.1606 32.9354 47.9206 33.0997 48.726C33.5567 48.2868 34.1405 48.0032 34.7681 47.9157C35.3957 47.8281 36.035 47.9412 36.5945 48.2386Z" fill="#3F85CD"/>
<path d="M46.1042 47.8349L45.2305 62.9626C45.2305 63.8367 45.4825 64.2737 45.7346 64.4082C45.8626 64.4742 45.9979 64.5249 46.1378 64.5594L46.3394 67.7195C45.7462 67.6934 45.1688 67.5201 44.6592 67.2152C42.4918 66.0554 41.8533 63.8535 42.0045 61.1137L42.8614 46.1877L46.1042 47.8349Z" fill="#3F85CD"/>
</svg>