<svg xmlns="http://www.w3.org/2000/svg" width="57" height="93" viewBox="0 0 57 93" fill="none">
<path d="M50.4889 90.0076L11.8447 68.2573C10.2769 67.3797 8.97212 66.0988 8.06523 64.5473C7.15835 62.9958 6.68234 61.2301 6.68655 59.4328V4.83875C6.68691 3.99409 6.90821 3.16427 7.32841 2.43165C7.74861 1.69903 8.35307 1.08917 9.08181 0.662622C9.81056 0.236075 10.6382 0.00769395 11.4825 0.000191035C12.3268 -0.00731188 13.1583 0.206313 13.8945 0.619841L52.9252 22.6222C54.0904 23.2834 55.0601 24.2412 55.7358 25.3984C56.4116 26.5555 56.7693 27.8709 56.7727 29.2111V86.2761C56.7626 87.0096 56.5645 87.7282 56.1973 88.3632C55.8301 88.9982 55.3061 89.5283 54.6756 89.9027C54.045 90.2771 53.3289 90.4834 52.5959 90.5018C51.8628 90.5201 51.1374 90.35 50.4889 90.0076Z" fill="#813CB8"/>
<path d="M10.3325 0.132324L2.6709 2.63679L9.44203 4.95637L10.3325 0.132324Z" fill="#813CB8"/>
<path d="M53.9672 90.3099L46.6416 92.6127L47.5153 82.6284L53.9672 90.3099Z" fill="#813CB8"/>
<path d="M43.8023 92.1086L5.15817 70.3584C3.59289 69.4821 2.28962 68.2039 1.38289 66.6557C0.476163 65.1074 -0.00120691 63.3452 5.67143e-06 61.5507V6.95664C-0.00129038 6.10955 0.219569 5.27694 0.640636 4.54201C1.0617 3.80708 1.66819 3.19555 2.39947 2.76852C3.13076 2.34148 3.96123 2.1139 4.80796 2.1085C5.6547 2.10309 6.48809 2.32002 7.22476 2.73769L46.2385 24.7401C47.4049 25.4 48.3756 26.3574 49.0516 27.5149C49.7275 28.6724 50.0845 29.9885 50.0862 31.329V88.478C50.0639 89.2047 49.8564 89.9137 49.4834 90.5378C49.1104 91.1619 48.5843 91.6803 47.9549 92.0439C47.3255 92.4076 46.6137 92.6044 45.887 92.6157C45.1602 92.627 44.4427 92.4525 43.8023 92.1086Z" fill="#A75BCE"/>
<path d="M22.0944 31.0767L21.1031 48.0196C20.8175 52.8941 18.566 55.7852 14.1135 53.2807C12.5764 52.3929 11.2319 51.2071 10.1587 49.7928C9.08541 48.3786 8.30504 46.7643 7.86328 45.0446L11.1397 43.9016C11.483 45.5472 12.4301 47.0045 13.7943 47.986C15.4744 48.8937 16.3818 48.339 16.5666 44.9605L17.5243 28.5386L22.0944 31.0767Z" fill="#541595"/>
<path d="M31.3352 42.0023C33.5221 43.3614 35.3354 45.2448 36.611 47.4819L34.3595 49.8014C33.5979 48.4169 32.5216 47.2308 31.2176 46.3389C30.0583 45.6833 29.4367 45.9187 29.3863 46.8936C29.3863 48.1374 30.7304 49.4148 32.2761 51.0285C33.4474 52.0466 34.391 53.3004 35.0453 54.7079C35.6996 56.1155 36.0499 57.6453 36.0734 59.1974C35.8717 62.7104 33.5195 64.24 29.3526 61.8868C26.9785 60.3687 25.007 58.2984 23.6064 55.8525L25.8746 53.4489C26.7942 55.1571 28.1146 56.6164 29.7223 57.7015C31.0665 58.4746 31.6881 58.1385 31.7385 57.13C31.7385 55.8525 30.3271 54.4238 28.7981 52.7429C26.9667 50.7763 24.8666 47.9693 25.0514 44.7757C25.3202 41.1787 27.7901 40.0021 31.3352 42.0023Z" fill="#541595"/>
</svg>