<svg xmlns="http://www.w3.org/2000/svg" width="92" height="91" viewBox="0 0 92 91" fill="none">
<g filter="url(#filter0_b_109_842)">
<rect x="1" width="90" height="90" rx="45" fill="url(#paint0_radial_109_842)" fill-opacity="0.2"/>
<rect x="1" width="90" height="90" rx="45" stroke="url(#paint1_linear_109_842)" stroke-width="2"/>
</g>
<path d="M68.8796 31.6252H68.0931C67.1207 31.6252 66.2047 32.0786 65.6135 32.8502L57.564 43.3766L49.5145 32.8502C48.9251 32.0786 48.0082 31.6252 47.0367 31.6252H46.2502L56.401 44.8986L46.0328 58.457H46.8192C47.7917 58.457 48.7076 58.0036 49.2979 57.232L57.5649 46.4215L65.8319 57.232C66.4222 58.0036 67.3382 58.457 68.3106 58.457H69.097L58.7289 44.8986L68.8796 31.6252ZM42.5659 53.1295C40.2029 56.7203 35.5508 58.5606 31.1032 56.9377C27.1904 55.5101 24.7191 51.6204 24.7191 47.455V46.4289H35.8219H45.9995V42.604C45.9995 36.5854 41.5417 31.3162 35.549 30.7527C28.6726 30.106 22.8687 35.5204 22.8687 42.2654V47.4217C22.8687 52.3911 25.8433 57.0108 30.5194 58.6938C36.6287 60.8922 43.0545 57.6113 45.2269 51.9803H44.6366C43.7937 51.9803 43.0286 52.4254 42.5659 53.1295ZM24.7191 42.2654C24.7191 36.9083 29.077 32.5504 34.4341 32.5504C39.7912 32.5504 44.149 36.9083 44.149 42.2654V44.5785H24.7191V42.2654Z" fill="black"/>
<defs>
<filter id="filter0_b_109_842" x="-24" y="-25" width="140" height="140" filterUnits="userSpaceOnUse" color-interpolation-filters="sRGB">
<feFlood flood-opacity="0" result="BackgroundImageFix"/>
<feGaussianBlur in="BackgroundImageFix" stdDeviation="12"/>
<feComposite in2="SourceAlpha" operator="in" result="effect1_backgroundBlur_109_842"/>
<feBlend mode="normal" in="SourceGraphic" in2="effect1_backgroundBlur_109_842" result="shape"/>
</filter>
<radialGradient id="paint0_radial_109_842" cx="0" cy="0" r="1" gradientUnits="userSpaceOnUse" gradientTransform="translate(1) rotate(45) scale(127.279)">
<stop offset="0.53"/>
<stop offset="1" stop-color="#F7F7F7" stop-opacity="0"/>
</radialGradient>
<linearGradient id="paint1_linear_109_842" x1="46" y1="90" x2="46" y2="0" gradientUnits="userSpaceOnUse">
<stop/>
<stop offset="1" stop-color="white" stop-opacity="0"/>
</linearGradient>
</defs>
</svg>