<svg xmlns="http://www.w3.org/2000/svg" width="92" height="92" viewBox="0 0 92 92" fill="none">
<g filter="url(#filter0_b_107_803)">
<rect x="1" y="1" width="90" height="90" rx="45" fill="url(#paint0_radial_107_803)" fill-opacity="0.4"/>
<rect x="1" y="1" width="90" height="90" rx="45" stroke="url(#paint1_linear_107_803)" stroke-width="2"/>
</g>
<g clip-path="url(#clip0_107_803)">
<path d="M26.7423 67.0317L22.8687 19.5941L69.1303 19.6894L65.0343 67.0317L46.1741 72.5039L26.7423 67.0317Z" fill="#E9CA32"/>
<path d="M46.1743 67.9225V24.1119L65.2252 24.1754L61.8279 63.3726L46.1743 67.9225Z" fill="#FFDE25"/>
<path d="M44.134 29.3138H39.0974V58.473L35.1801 57.7254V53.8001L30.5166 53.0524V61.8376L44.134 65.389V29.3138ZM47.9121 29.3138H61.8552L60.9225 34.9026H53.2348V44.074H60.9225L59.9898 62.5852L47.9121 65.389V59.5945L56.0725 56.7908L56.5437 49.1271L47.9121 50.3795V29.3138Z" fill="white"/>
</g>
<defs>
<filter id="filter0_b_107_803" x="-24" y="-24" width="140" height="140" filterUnits="userSpaceOnUse" color-interpolation-filters="sRGB">
<feFlood flood-opacity="0" result="BackgroundImageFix"/>
<feGaussianBlur in="BackgroundImageFix" stdDeviation="12"/>
<feComposite in2="SourceAlpha" operator="in" result="effect1_backgroundBlur_107_803"/>
<feBlend mode="normal" in="SourceGraphic" in2="effect1_backgroundBlur_107_803" result="shape"/>
</filter>
<radialGradient id="paint0_radial_107_803" cx="0" cy="0" r="1" gradientUnits="userSpaceOnUse" gradientTransform="translate(1 1) rotate(45) scale(127.279)">
<stop offset="0.53" stop-color="#E9CA32"/>
<stop offset="1" stop-color="#F7F7F7" stop-opacity="0"/>
</radialGradient>
<linearGradient id="paint1_linear_107_803" x1="46" y1="91" x2="46" y2="1" gradientUnits="userSpaceOnUse">
<stop stop-color="#E9CA32"/>
<stop offset="1" stop-color="white" stop-opacity="0"/>
</linearGradient>
<clipPath id="clip0_107_803">
<rect width="46.2617" height="53.0872" fill="white" transform="translate(22.8687 19.5054)"/>
</clipPath>
</defs>
</svg>