<svg xmlns="http://www.w3.org/2000/svg" width="92" height="92" viewBox="0 0 92 92" fill="none">
<g filter="url(#filter0_b_109_870)">
<rect x="1" y="1" width="90" height="90" rx="45" fill="url(#paint0_radial_109_870)" fill-opacity="0.2"/>
<rect x="1" y="1" width="90" height="90" rx="45" stroke="url(#paint1_linear_109_870)" stroke-width="2"/>
</g>
<path d="M45.9991 72.053C45.281 72.053 44.6106 71.8616 43.9878 71.5264L37.6186 67.7433C36.6606 67.2162 37.1396 67.0248 37.4272 66.9291C38.72 66.4981 38.9595 66.402 40.3004 65.6363C40.4442 65.5401 40.636 65.5882 40.7794 65.6839L45.6643 68.6052C45.8557 68.7009 46.0952 68.7009 46.2386 68.6052L65.3468 57.5426C65.5383 57.4468 65.6344 57.255 65.6344 57.0159V34.9388C65.6344 34.6989 65.5383 34.5078 65.3468 34.4117L46.2386 23.3972C46.0472 23.3011 45.8077 23.3011 45.6643 23.3972L26.556 34.4117C26.3646 34.5074 26.2685 34.7469 26.2685 34.9384V57.0155C26.2685 57.2073 26.3646 57.4464 26.556 57.5426L31.7762 60.5595C34.6017 61.9961 36.3735 60.32 36.3735 58.6439V36.854C36.3735 36.5668 36.613 36.2792 36.9482 36.2792H39.3904C39.678 36.2792 39.9652 36.5187 39.9652 36.854V58.6439C39.9652 62.427 37.9058 64.6302 34.3141 64.6302C33.2128 64.6302 32.3509 64.6302 29.9082 63.4327L24.88 60.5595C23.6348 59.8414 22.8687 58.5001 22.8687 57.0636V34.9864C22.8687 33.5498 23.6348 32.2086 24.88 31.4905L43.9878 20.4279C45.1853 19.7574 46.8137 19.7574 48.0108 20.4279L67.1186 31.4905C68.3638 32.2086 69.1303 33.5498 69.1303 34.9864V57.0636C69.1303 58.5001 68.3638 59.8414 67.1186 60.5595L48.0108 71.6221C47.388 71.9097 46.6695 72.053 45.9991 72.053ZM51.8896 56.8721C43.5092 56.8721 41.785 53.0409 41.785 49.7845C41.785 49.4969 42.0245 49.2098 42.3598 49.2098H44.8501C45.1372 49.2098 45.3767 49.4012 45.3767 49.6888C45.76 52.2267 46.8614 53.4719 51.9377 53.4719C55.9603 53.4719 57.6849 52.5619 57.6849 50.4069C57.6849 49.1617 57.2055 48.2522 50.9321 47.6294C45.7119 47.1023 42.4555 45.9533 42.4555 41.7869C42.4555 37.9077 45.7123 35.6088 51.1715 35.6088C57.3012 35.6088 60.3185 37.7162 60.7018 42.3132C60.7018 42.4573 60.6538 42.6007 60.5581 42.7445C60.4619 42.8402 60.3186 42.9359 60.1748 42.9359H57.6845C57.445 42.9359 57.2055 42.7445 57.1578 42.505C56.5831 39.8713 55.0984 39.009 51.1715 39.009C46.7656 39.009 46.2386 40.5418 46.2386 41.6908C46.2386 43.0797 46.8614 43.5107 52.7996 44.2768C58.6901 45.0434 61.468 46.1447 61.468 50.2631C61.4199 54.4775 57.972 56.8721 51.8896 56.8721Z" fill="#539E43"/>
<defs>
<filter id="filter0_b_109_870" x="-24" y="-24" width="140" height="140" filterUnits="userSpaceOnUse" color-interpolation-filters="sRGB">
<feFlood flood-opacity="0" result="BackgroundImageFix"/>
<feGaussianBlur in="BackgroundImageFix" stdDeviation="12"/>
<feComposite in2="SourceAlpha" operator="in" result="effect1_backgroundBlur_109_870"/>
<feBlend mode="normal" in="SourceGraphic" in2="effect1_backgroundBlur_109_870" result="shape"/>
</filter>
<radialGradient id="paint0_radial_109_870" cx="0" cy="0" r="1" gradientUnits="userSpaceOnUse" gradientTransform="translate(1 1) rotate(45) scale(127.279)">
<stop offset="0.53" stop-color="#539E43"/>
<stop offset="1" stop-color="#F7F7F7" stop-opacity="0"/>
</radialGradient>
<linearGradient id="paint1_linear_109_870" x1="46" y1="91" x2="46" y2="1" gradientUnits="userSpaceOnUse">
<stop stop-color="#539E43"/>
<stop offset="1" stop-color="white" stop-opacity="0"/>
</linearGradient>
</defs>
</svg>