<svg xmlns="http://www.w3.org/2000/svg" width="92" height="92" viewBox="0 0 92 92" fill="none">
<g filter="url(#filter0_b_107_834)">
<rect x="1" y="1" width="90" height="90" rx="45" fill="url(#paint0_radial_107_834)" fill-opacity="0.4"/>
<rect x="1" y="1" width="90" height="90" rx="45" stroke="url(#paint1_linear_107_834)" stroke-width="2"/>
</g>
<path d="M69.1308 45.9952C69.1308 42.9306 65.293 40.0262 59.4089 38.2252C60.7668 32.228 60.1633 27.4566 57.5041 25.929C56.8912 25.5706 56.1745 25.4009 55.3919 25.4009V27.5037C55.8256 27.5037 56.1745 27.5886 56.4669 27.7489C57.7493 28.4844 58.3056 31.285 57.8719 34.8871C57.7681 35.7735 57.5984 36.707 57.391 37.6594C55.5428 37.2068 53.5248 36.8579 51.4032 36.6316C50.1302 34.8871 48.81 33.3029 47.4804 31.9168C50.5545 29.0596 53.44 27.4943 55.4013 27.4943V25.3915C52.8082 25.3915 49.4135 27.2397 45.9811 30.4458C42.5487 27.2585 39.1541 25.4292 36.5609 25.4292V27.532C38.5129 27.532 41.4078 29.0879 44.4818 31.9262C43.1617 33.3124 41.8415 34.8871 40.5874 36.6316C38.4563 36.8579 36.4384 37.2068 34.5902 37.6688C34.3733 36.7259 34.213 35.8112 34.0998 34.9342C33.6566 31.3321 34.2035 28.5315 35.4765 27.7866C35.7594 27.6169 36.1272 27.5414 36.5609 27.5414V25.4386C35.7689 25.4386 35.0522 25.6084 34.4298 25.9667C31.7801 27.4943 31.1861 32.2562 32.5534 38.2346C26.6881 40.0451 22.8691 42.94 22.8691 45.9952C22.8691 49.0598 26.707 51.9641 32.5911 53.7652C31.2332 59.7624 31.8367 64.5338 34.4959 66.0614C35.1088 66.4197 35.8254 66.5895 36.6175 66.5895C39.2107 66.5895 42.6053 64.7413 46.0377 61.5352C49.4701 64.7224 52.8647 66.5517 55.4579 66.5517C56.25 66.5517 56.9666 66.382 57.589 66.0237C60.2387 64.4961 60.8328 59.7341 59.4655 53.7558C65.3118 51.9547 69.1308 49.0504 69.1308 45.9952ZM56.8535 39.7056C56.5046 40.9221 56.0708 42.1762 55.5805 43.4303C55.1939 42.676 54.7884 41.9216 54.3452 41.1672C53.9114 40.4129 53.4494 39.6773 52.9873 38.9607C54.3263 39.1587 55.6182 39.4039 56.8535 39.7056ZM52.5347 49.7482C51.7992 51.0212 51.0448 52.2282 50.2622 53.3503C48.8572 53.4729 47.4333 53.5389 46 53.5389C44.5761 53.5389 43.1522 53.4729 41.7567 53.3597C40.974 52.2376 40.2102 51.04 39.4747 49.7765C38.758 48.5412 38.1074 47.287 37.5133 46.0235C38.098 44.7599 38.758 43.4963 39.4653 42.2611C40.2008 40.9881 40.9551 39.7811 41.7378 38.6589C43.1428 38.5364 44.5667 38.4704 46 38.4704C47.4239 38.4704 48.8477 38.5364 50.2433 38.6495C51.026 39.7716 51.7898 40.9692 52.5253 42.2328C53.2419 43.4681 53.8926 44.7222 54.4866 45.9858C53.8926 47.2493 53.2419 48.5129 52.5347 49.7482ZM55.5805 48.5223C56.0897 49.7859 56.5234 51.0495 56.8818 52.2753C55.6465 52.5771 54.3452 52.8317 52.9968 53.0297C53.4588 52.3036 53.9209 51.5587 54.3546 50.7949C54.7884 50.0405 55.1939 49.2767 55.5805 48.5223ZM46.0188 58.5837C45.1419 57.6785 44.2649 56.6695 43.3974 55.5662C44.2461 55.604 45.1136 55.6323 45.9906 55.6323C46.8769 55.6323 47.7539 55.6134 48.612 55.5662C47.7633 56.6695 46.8864 57.6785 46.0188 58.5837ZM39.0032 53.0297C37.6642 52.8317 36.3723 52.5865 35.1371 52.2847C35.486 51.0683 35.9197 49.8142 36.4101 48.56C36.7967 49.3144 37.2022 50.0688 37.6453 50.8232C38.0885 51.5775 38.5412 52.313 39.0032 53.0297ZM45.9717 33.4067C46.8487 34.3119 47.7256 35.3209 48.5931 36.4241C47.7445 36.3864 46.8769 36.3581 46 36.3581C45.1136 36.3581 44.2367 36.377 43.3786 36.4241C44.2272 35.3209 45.1042 34.3119 45.9717 33.4067ZM38.9938 38.9607C38.5317 39.6868 38.0697 40.4317 37.6359 41.1955C37.2022 41.9499 36.7967 42.7043 36.4101 43.4586C35.9009 42.1951 35.4671 40.9315 35.1088 39.7056C36.3441 39.4133 37.6453 39.1587 38.9938 38.9607ZM30.46 50.7666C27.1219 49.3427 24.9625 47.4756 24.9625 45.9952C24.9625 44.5147 27.1219 42.6382 30.46 41.2238C31.2709 40.8749 32.1573 40.5637 33.072 40.2714C33.6095 42.1196 34.3167 44.0433 35.1936 46.014C34.3261 47.9754 33.6283 49.8896 33.1003 51.7284C32.1667 51.4361 31.2804 51.1155 30.46 50.7666ZM35.5331 64.2415C34.2507 63.506 33.6943 60.7054 34.1281 57.1033C34.2318 56.2169 34.4016 55.2834 34.609 54.331C36.4572 54.7836 38.4752 55.1325 40.5968 55.3588C41.8698 57.1033 43.19 58.6874 44.5195 60.0736C41.4455 62.9308 38.56 64.4961 36.5987 64.4961C36.1743 64.4867 35.816 64.4018 35.5331 64.2415ZM57.9002 57.0561C58.3434 60.6582 57.7964 63.4588 56.5234 64.2038C56.2405 64.3735 55.8728 64.4489 55.439 64.4489C53.4871 64.4489 50.5922 62.8931 47.5182 60.0547C48.8383 58.6686 50.1584 57.0938 51.4126 55.3494C53.5437 55.1231 55.5616 54.7742 57.4098 54.3121C57.6267 55.2645 57.7964 56.1792 57.9002 57.0561ZM61.5306 50.7666C60.7196 51.1155 59.8332 51.4266 58.9186 51.719C58.3811 49.8708 57.6738 47.9471 56.7969 45.9763C57.6644 44.015 58.3622 42.1008 58.8903 40.262C59.8238 40.5543 60.7102 40.8749 61.54 41.2238C64.8781 42.6477 67.0375 44.5147 67.0375 45.9952C67.028 47.4756 64.8686 49.3521 61.5306 50.7666Z" fill="#61DAFB"/>
<path d="M45.991 50.3051C48.371 50.3051 50.3003 48.3757 50.3003 45.9957C50.3003 43.6158 48.371 41.6864 45.991 41.6864C43.611 41.6864 41.6816 43.6158 41.6816 45.9957C41.6816 48.3757 43.611 50.3051 45.991 50.3051Z" fill="#61DAFB"/>
<defs>
<filter id="filter0_b_107_834" x="-24" y="-24" width="140" height="140" filterUnits="userSpaceOnUse" color-interpolation-filters="sRGB">
<feFlood flood-opacity="0" result="BackgroundImageFix"/>
<feGaussianBlur in="BackgroundImageFix" stdDeviation="12"/>
<feComposite in2="SourceAlpha" operator="in" result="effect1_backgroundBlur_107_834"/>
<feBlend mode="normal" in="SourceGraphic" in2="effect1_backgroundBlur_107_834" result="shape"/>
</filter>
<radialGradient id="paint0_radial_107_834" cx="0" cy="0" r="1" gradientUnits="userSpaceOnUse" gradientTransform="translate(1 1) rotate(45) scale(127.279)">
<stop offset="0.53" stop-color="#61DAFB"/>
<stop offset="1" stop-color="#F7F7F7" stop-opacity="0"/>
</radialGradient>
<linearGradient id="paint1_linear_107_834" x1="46" y1="91" x2="46" y2="1" gradientUnits="userSpaceOnUse">
<stop stop-color="#61DAFB"/>
<stop offset="1" stop-color="white" stop-opacity="0"/>
</linearGradient>
</defs>
</svg>