<svg xmlns="http://www.w3.org/2000/svg" xmlns:v="https://vecta.io/nano" width="227" height="26" fill="#6836f4"><path d="M200.517 15.321c.683-.055.703-.077.389-.388-.069-.069-.186-.135-.063-.222.047-.028.107-.044.169-.047a.39.39 0 0 1 .176.033c.367.105.678.289 1.105.307.291.012.555.057.698-.18.02-.034.093-.05.139-.075.271.259.53.101.794 0 .029-.006.059-.006.089-.002s.056.013.08.027c.186.331.599.202.936.236.148.014.328.03.346.166s-.16.103-.247.152c-.544.315-1.146.077-1.716.091-.276 0-.552-.028-.825-.04-.125 0-.25 0-.314.095-.131.202-.236.119-.326-.016-.016-.036-.046-.068-.088-.091s-.093-.038-.147-.042c-.114 0-.227 0-.265.089s.061.154.183.19.37.03.34.202c0 .071-.127.089-.22.087-.207 0-.503.059-.559-.125-.069-.23-.276-.267-.526-.277-.363-.018-.61-.241-.985-.249s-.666-.085-.995.034c-.05.014-.105.019-.159.015a.43.43 0 0 1-.152-.039c-.165-.069-.232-.081-.412.055-.242.184-.669.061-.989 0a.85.85 0 0 0-.445.014c-.581.147-1.163 0-1.744-.026s-1.055-.376-1.695-.376c-.5 0-1.003-.079-1.453.125-.067.03-.184.067-.207.028-.195-.293-.703-.156-1.043-.461.084.404-.178.42-.512.388l-4.634-.176-4.428-.142c-.753.01-1.503-.083-2.244-.053-1.349.055-2.689-.125-4.038-.036-.331.02-.674-.052-1.009-.044-1.508.04-3.011-.077-4.517-.081l-1.102.044c-.558.036-1.117.129-1.686-.012a2.26 2.26 0 0 0-.96.01 5.7 5.7 0 0 1-2.003.044c-1.075-.158-2.131.067-3.197.069-.721 0-1.454-.024-2.16-.04-.486-.012-.973.007-1.454.057a7.21 7.21 0 0 1-1.145-.024c-1.192-.065-2.393.02-3.585-.107-.368 0-.731.053-1.067.158-.338.073-.697.09-1.046.05-.762-.068-1.534-.047-2.285.063.347.083.709.137 1.075.16.689-.016 1.401.038 2.061-.069s1.227.101 1.849.042a2.94 2.94 0 0 0 .872-.135c.122-.048.261-.071.401-.068s.276.034.393.088a1.63 1.63 0 0 0 .75.115c1.332-.091 2.663.018 4-.024a27.78 27.78 0 0 1 3.256.024c.163.014.384 0 .367.168s-.213.214-.434.216c-1.36.016-2.726-.016-4.07.028l-3.351.085c-.466.034-.873.117-1.288-.127-.134-.081-.358 0-.538.024-.898.121-1.797.212-2.704.036-.305-.031-.616-.013-.91.053-.654.081-1.32.055-1.968.113-1.186.107-2.349 0-3.52-.036-.766 0-1.53.043-2.285.129-.326.028-.657-.109-1 .02.183.127.668-.059.581.289.119 0 .241.022.36.024l3.283.038c.54.034 1.162.125 1.744-.016.026 0 .064-.018.087-.01.582.17 1.143-.059 1.724.012.361.035.728.017 1.079-.053.308-.066.634-.077.95-.032.771.119 1.526 0 2.291-.034.631-.034 1.276.073 1.91.057l3.416.04c1.372-.107 2.733-.174 4.102.02.45.065.913-.059 1.369-.101.439-.02.88-.011 1.317.026.692.024 1.398.158 2.087-.014.144-.041.298-.061.453-.058a1.56 1.56 0 0 1 .449.072 2.15 2.15 0 0 0 .608.119c.212.011.425-.007.627-.055.768-.17 1.5.162 2.268.073.267-.032.552.022.808-.085.058-.022.174-.036.215-.012.381.202.834.083 1.247.133.148.031.306.032.455.003s.284-.086.388-.165c.035-.027.077-.048.124-.063s.098-.022.149-.022.103.008.15.022.089.036.124.063c.343.277.785.257 1.229.251l5.007.087a17.95 17.95 0 0 1 1.979.091c.241.002.48-.023.71-.073-.038-.158-.381-.067-.317-.244a.21.21 0 0 1 .088-.095c.042-.025.093-.041.147-.047.201-.036.259.077.346.162.117.121.281.216.473.274a1.55 1.55 0 0 0 .612.055c1.005-.028 2.035.073 3.032.105l4.843.141a2 2 0 0 1 .273.022c.169.03.358.067.34.216s-.232.133-.398.148c-1.244.103-2.474-.125-3.715-.089s-2.495-.154-3.756-.133c-.896.016-1.8-.184-2.692-.152-.707.024-1.396-.202-2.114 0-.462.131-.974.03-1.453-.018l-1.745-.063-3.86-.038c-.939 0-1.87-.081-2.797-.063l-2.326.036c-.09 0-.244 0-.235.067.049.327-.331.247-.558.283-.765.117-1.529 0-2.291-.044l-.547-.047c-.13-.012-.325.014-.314-.121s.21-.135.361-.125l.872.083c.044.012.092.015.139.009s.089-.022.123-.045c-.429-.132-.9-.184-1.367-.152-.657.092-1.328.124-1.997.095-.206-.012-.439-.038-.488.188-.029.133-.224.129-.375.129l-2.157.024-1.088.101c-.203.01-.543.083-.555-.145 0-.192.291-.162.515-.174.027-.001.053-.007.076-.018s.04-.025.052-.043c-1.32.046-2.634-.032-3.986-.032.093.085.334.109.244.253s-.276.154-.465.164l-3.253.067c-.295-.031-.597-.005-.872.075.311.091.654.024.979.083.405.053.82.053 1.224 0 1.163-.132 2.347-.153 3.518-.063a12.83 12.83 0 0 0 2.826.018c.805-.111 1.468.075 2.145.303.137.046.291.131.425.044.186-.115-.067-.148-.12-.218-.015-.013-.025-.027-.029-.043s-.004-.032.003-.048.02-.03.036-.041a.17.17 0 0 1 .06-.024c.122-.034.271-.042.332.045.346.487 1.005.471 1.633.507.114.022.236.014.342-.021s.192-.096.24-.171c.102-.164.328-.127.526-.109.407.036.811.119 1.227 0a.45.45 0 0 1 .206-.003c.068.015.126.045.166.085.029.025.044.057.044.089s-.015.064-.044.089c-.096.095-.236.083-.378.069a.82.82 0 0 0-.427 0c.142.099.319.067.474.087.107.014.22.034.235.123s-.11.115-.215.127-.233.05-.317.026c-.491-.146-1.02.131-1.506-.075a.56.56 0 0 0-.158-.013c-.054.003-.106.014-.153.031-.128.042-.352.057-.323.186s.23.069.358.097c.712.118 1.453.124 2.169.018.721-.073 1.383.032 2.07.073a.31.31 0 0 0 .043 0c.459-.012.872-.156 1.387.04.384.146.968.014 1.453.069.711.075 1.433.088 2.149.04 1.026-.055 2.035.115 3.055.032a17.06 17.06 0 0 1 2.195.071c.167.017.338.005.497-.034-.02-.016-.032-.036-.049-.04-.207-.043-.582.061-.582-.143s.37-.097.567-.139c.393-.085.791.024 1.189.022.308 0 .311-.121.396-.251.125-.186-.117-.149-.218-.19s-.265-.089-.216-.202c.011-.023.029-.045.051-.063s.051-.034.083-.045.065-.018.1-.02.07.001.104.009c.805.087 1.622.081 2.43.137.683.046 1.361.01 2.035.034l3.869.214c.221 0 .434.059.466.249.017.119.127.158.27.186s.363.097.23.241-.309.224-.547.109c-.076-.036-.186-.085-.195-.133-.064-.422-.549-.335-.921-.374a4.09 4.09 0 0 0-.739 0 3.01 3.01 0 0 1 1.186.344c.082.046.224.079.169.166-.014.023-.035.043-.061.059a.29.29 0 0 1-.092.035c-.034.007-.069.009-.104.005a.32.32 0 0 1-.098-.026c-.253-.168-.494-.065-.758-.046-.645.036-1.293.017-1.931-.057-.305-.032-.328-.234-.433-.38-.137-.202-.291-.299-.509-.061-.128.137-.305.121-.485.125-.614.02-1.23-.036-1.837.059-.122.01-.24.035-.349.073a.46.46 0 0 1-.156.068c-.059.014-.121.018-.183.013a.53.53 0 0 1-.172-.045c-.052-.024-.095-.056-.126-.093-.09-.081-.241-.079-.378-.099-.038.097.169.089.128.149-.291.43.291.257.41.238.904-.139 1.767.01 2.654.087.515.047 1.076-.05 1.622 0l1.378.069c.178.01.428-.016.422.164s-.236.113-.396.121c-1.232.069-2.45-.046-3.674-.093-.744-.028-1.494-.125-2.247-.01-.289.032-.582.037-.873.014l-8.055-.073-1.974-.087-1.654.042h-3.527a7.07 7.07 0 0 0-.793.05.42.42 0 0 0 .197.077c.076.01.155.003.224-.02.189-.048.397-.045.582.01a1.06 1.06 0 0 0 .303.055 1.11 1.11 0 0 0 .31-.031c.506-.073.98.135 1.489.119.023.002.046.006.067.014s.039.018.054.031.026.028.033.043.008.033.005.049c-.002.022-.01.043-.024.062s-.034.036-.058.05a.28.28 0 0 1-.081.03c-.03.006-.062.008-.092.006a9.44 9.44 0 0 1-1.015 0c-.642-.051-1.288-.064-1.933-.04-.512.012-1.009-.061-1.515-.075-.145 0-.357 0-.317-.162s.239-.178.439-.147a.79.79 0 0 1 .16.061c.061.028.119.079.201.038.017-.01.03-.021.04-.035s.015-.029.015-.044c-.017-.085-.125-.093-.212-.091-.46.016-.913-.079-1.378-.028-.703.047-1.409.056-2.114.024-.096 0-.209-.05-.29.032.043.099.136.101.253.065s.223-.034.226.079-.055.19-.203.178c-.291-.024-.617.014-.829-.143a.93.93 0 0 0-.341-.16c-.13-.033-.271-.043-.409-.03-.535.05-1.073.022-1.625.052.273.124.605.169.925.125.159 0 .395 0 .383.158s-.238.137-.404.117c-.288-.032-.581-.041-.872-.026-.224.01-.5.024-.416-.245.027-.083-.066-.121-.162-.121-.657 0-1.306-.141-2.067-.057.235.088.493.143.758.162.108.014.218.032.233.125.003.022 0 .044-.01.064s-.026.04-.047.056-.047.029-.075.038-.06.013-.092.013l-.68.04c.317.111.679.144 1.026.093.843-.095 1.689-.032 2.532-.04l2.669.026 2.762-.026 4.41.04c.549 0 1.139.051 1.657-.172.056-.018.118-.025.18-.021s.121.019.172.043a2.22 2.22 0 0 0 .947.103c.637-.081 1.242.061 1.864.081.059.006.119.001.174-.014.582-.291 1.204-.139 1.8-.038.29.049.543-.034.817-.034.474 0 .947.081 1.418-.024.201-.044.556.089.442-.238-.017-.055.114-.099.215-.085s.253.077.186.176c-.116.162 0 .174.186.19.419.038.829.15 1.262.012.157-.05.291-.032.291-.202 0-.135.212-.131.36-.129l3.908.091a7.71 7.71 0 0 0 .779.03c.29 0 .526 0 .581.269.23-.241 1.291-.384 1.538-.216s-.137.202-.186.307c.02.022.029.048.049.056.163.063.5.022.463.202s-.361.109-.547.103c-1.744-.061-3.471-.03-5.201.014-1.107.03-2.209-.091-3.308-.01a10.15 10.15 0 0 1-1.788-.012c-1.047-.111-2.105.032-3.148-.099-.333-.043-.674-.043-1.006 0-.872.111-1.745-.028-2.594-.012l-10.465.042c-1.744 0-3.465-.059-5.198-.057l-7.184.065-4.631.085-2.703.034-5.57.131-5.707.089-6.07.121-3.343.109a.48.48 0 0 1-.093 0c-1.309-.18-2.617-.01-3.94-.014l-4.971.044h-2.616s-1.776-.018-2.666 0h-2.433s-1.532 0-2.297.018l-.782.01c-4.224-.089-8.448-.049-12.672-.052-1.273 0-2.544-.049-3.814-.049-1.424 0-2.849-.053-4.273-.024-1.895.036-3.779.014-5.686-.012-1.538-.02-3.079.097-4.617.069-1.672-.032-3.34 0-5.012 0-1.855-.012-3.715-.026-5.573.028-1.989.057-3.977-.014-5.965 0-2.151.014-4.288-.127-6.434-.156l-3.628-.093c-.782-.028-1.564-.109-2.326-.113-1.625-.01-3.233-.212-4.852-.214-1.829 0-3.651-.089-5.474-.148l-6.024-.152c-1.401-.065-2.82-.026-4.233-.036-.241-.022-.487-.007-.718.045a1.9 1.9 0 0 0-.622.254 2.37 2.37 0 0 0-.477.657c-.094.13-.239.239-.419.315s-.386.114-.596.111c-.355-.04-.436-.242-.532-.463s-.221-.414.119-.624c.18-.111 0-.257-.238-.291-.422-.065-.855-.082-1.285-.053-.962.067-1.924 0-2.887-.01-1.5 0-2.962.083-4.294.633-.41.168-.837.285-1.282.043-.073-.04-.172-.075-.201-.127-.156-.359-.499-.664-.962-.857l-.029-.026c-.206-.218.186-.317.198-.479s-.291-.341.291-.358c-.137-.061-.253-.143-.339-.24s-.14-.205-.158-.318a.33.33 0 0 1 .03-.282c.052-.09.144-.165.261-.217.244-.107.244-.226.055-.364-.372-.271-.535-.564-.253-.927.024-.051.033-.105.025-.159s-.031-.105-.069-.152c-.084-.162-.084-.339 0-.501a.31.31 0 0 0 .032-.242.41.41 0 0 0-.16-.215.72.72 0 0 0-.302-.121c-.115-.02-.236-.016-.349.011-.092.022-.19.03-.287.025s-.191-.025-.277-.056-.161-.076-.222-.129a.46.46 0 0 1-.13-.179c-.291-.631-.451-1.271.18-1.861.201-.19.224-.325-.099-.471-.558-.251-.642-.659-.622-1.075.031-.266-.059-.533-.256-.762-.226-.227-.322-.504-.268-.778s.253-.523.559-.699c.291-.186.273-.267-.058-.404-.523-.226-.872-.542-.738-1.01.011-.117-.003-.235-.044-.35-.025-.069-.028-.141-.009-.211a.43.43 0 0 1 .119-.194c.581-.483 1.087-.982 1.866-1.35a21.59 21.59 0 0 1 2.965-1.148c.75-.248 1.563-.392 2.393-.424.23 0 .427-.014.422-.232-.001-.017.005-.033.016-.047s.029-.026.05-.034.044-.012.068-.011.047.006.066.016c.506.313 1.076.119 1.613.097.822-.038 1.641-.105 2.454-.202 1.177-.133 2.369-.176 3.547-.313 1.092-.115 2.193-.177 3.297-.188.583.016 1.168-.008 1.744-.071.526-.083 1.096-.018 1.643-.014h5.564l4.837-.01 6.012.069a68.58 68.58 0 0 0 4.276 0c.686-.022 1.381.067 2.064.032 1.18-.063 2.358-.01 3.535-.042l2.384-.065c.942-.038 1.884.028 2.832-.073.546-.048 1.096-.064 1.645-.048 1.273.014 2.541-.055 3.808-.113.904-.042 1.808-.03 2.712-.079l7.532-.303c.395-.028.791.077 1.192-.014.03-.008.062-.01.093-.007s.061.011.087.024.046.03.059.05.019.042.017.064c.003.022 0 .044-.01.064s-.026.04-.048.055-.048.028-.077.036-.06.011-.092.01c-.454 0-.872.139-1.349.085-.581-.069-1.163.057-1.744.097a5.9 5.9 0 0 1-1.195 0c-.536-.061-1.085-.017-1.587.125.808.081 1.549-.04 2.294-.042 1.593 0 3.198-.014 4.782-.081 1.323-.057 2.648-.042 3.974-.123.968-.086 1.951-.06 2.907.077.613.103 1.247-.03 1.875-.026.872 0 1.744-.028 2.616-.046.122 0 .291.018.355-.026.413-.37.956-.168 1.454-.168.307.009.616.003.922-.02.316-.029.638-.004.936.075.445.101.936.02 1.404 0 .713-.07 1.435-.081 2.151-.032.564.061 1.145-.044 1.727-.046.98 0 1.962-.032 2.945.01.814.034 1.622-.087 2.436-.093.613 0 1.233-.042 1.823.121.042.013.088.019.134.018 1.454-.176 2.907-.125 4.361-.113.418 0 .846-.034 1.267-.048 1.547-.055 3.094-.044 4.652-.077 1.067-.022 2.134-.105 3.198-.055a32.49 32.49 0 0 0 2.66-.042c1.023-.036 2.035 0 3.075-.063 2.035-.129 4.053-.026 6.076-.117a152.53 152.53 0 0 1 4.998-.123l5.599-.093c2.157 0 4.317-.059 6.471-.121.872-.024 1.715 0 2.57 0l3.721-.103c1.378-.04 2.759-.016 4.14-.02l5.067-.02 3.3-.097a5.65 5.65 0 0 1 1.683.129c.157.04.354.085.317.232s-.253.135-.413.111c-.73-.115-1.422.111-2.137.103a16.99 16.99 0 0 1-2.055-.051c-.408-.046-.825-.046-1.233 0-.785.073-1.57.16-2.366.012-.355-.065-.701.091-1.079.085-1-.016-1.994.168-3.003-.014-.256-.044-.581.055-.852.093-.805.107-1.607-.028-2.413 0-.889.026-1.776.121-2.66.127-1.078 0-2.171.158-3.25-.038a.82.82 0 0 0-.267-.02c-.704.124-1.435.153-2.154.087a1.49 1.49 0 0 0-.413 0c-.521.096-1.067.11-1.596.04-.678-.081-1.343.018-2.009.067-1.241.091-2.483-.032-3.724.024-.669.063-1.343.09-2.018.083-1.322-.079-2.616.162-3.942.107-1.433-.059-2.875.048-4.314.081l-2.983.03-7.398.073c-.872.02-1.745.014-2.617 0s-1.724-.024-2.578.15a3.94 3.94 0 0 1-1.003-.042c-.777-.029-1.555-.009-2.326.061-.497.024-.954-.129-1.454-.083-.872.079-1.744-.075-2.599.139a.71.71 0 0 1-.227 0c-1.204-.091-2.419-.053-3.616-.111-1.096-.053-2.16.085-3.242.053a8.17 8.17 0 0 0-1.692.097c-.164.03-.334.04-.503.03-1.416-.099-2.843-.107-4.262-.024-1.358.063-2.718.032-4.07.111-.948.069-1.905.057-2.849-.036-1.299-.15-2.523.079-3.779.168a28.12 28.12 0 0 1-2.907.113c-.581-.02-1.163 0-1.744.012a1.19 1.19 0 0 0-.561.115 2.4 2.4 0 0 0 .765.046c1.404-.081 2.817.03 4.215-.067 1.582-.109 3.16-.042 4.742-.083 1.401-.036 2.811-.049 4.218-.04.762 0 1.523-.063 2.276.065.349.059.666-.065.983-.107.726-.075 1.465-.065 2.186.03.345.052.703.045 1.044-.02a2.93 2.93 0 0 1 .954-.048c.688.026 1.378.006 2.061-.059.253-.012.474.055.724.044 1.645-.067 3.294-.049 4.942-.073l5.021-.055c1.433-.036 2.878 0 4.317.034.207 0 .454.024.558.125.343.323.849.293 1.291.283l1.997-.03c-.325-.136-.713-.181-1.084-.125a5.22 5.22 0 0 1-1.192.067c-.192-.01-.395-.067-.404-.212s.227-.113.36-.123c.582-.046 1.163-.103 1.745-.109 1.567-.014 3.139.04 4.703-.014 2.326-.081 4.629 0 6.934-.148.446-.015.892-.001 1.334.042.259.026.522.019.776-.022.477-.084.975-.088 1.454-.012a1.32 1.32 0 0 0 .634-.042 1.28 1.28 0 0 1 .541-.051 14.9 14.9 0 0 0 2.421-.018c.491-.034.971.042 1.468 0a56.26 56.26 0 0 1 5.317-.139c1.96.042 3.919.02 5.873 0l2.753-.032a3.34 3.34 0 0 1 .631.075c.027.002.053.008.077.017s.045.022.062.037.028.032.035.051.008.038.003.057c-.006.038-.033.073-.075.098a.28.28 0 0 1-.152.034h-.828c-1.948.022-3.902 0-5.844.085-1.133.046-2.27-.044-3.395.095-.506.065-1.009-.053-1.518-.038l-1.564.046c-1.279.048-2.564.059-3.849.071-.889.01-1.793 0-2.663.061-1.52.101-3.035 0-4.546.079-2.143.107-4.291.085-6.434.141-.846.024-1.671-.077-2.509-.055-.165 0-.331.024-.581.042.414.118.857.18 1.305.18 1.224.014 2.448.079 3.672.057l5.457-.061c.061.006.124.003.184-.008s.116-.031.164-.058c.101-.068.227-.115.365-.135a1.04 1.04 0 0 1 .412.024c.915.19 1.831.026 2.747.03a48.42 48.42 0 0 0 2.424-.067c1.245-.065 2.483.018 3.722-.03 1.669-.086 3.344-.106 5.017-.061.913.038 1.8-.127 2.701-.022.558.067 1.055-.174 1.628-.15 2.273.099 4.544-.079 6.82-.065.442.035.888.031 1.329-.012.045-.01.094-.007.137.009s.074.041.089.072c.047.095-.067.129-.165.162-.219.08-.462.123-.71.123-.953-.032-1.889.097-2.831.16-.529.034-1.041-.048-1.564-.024-1.192.051-2.387 0-3.579.032-.698.016-1.404.036-2.099.093-.77.065-1.532-.016-2.299 0l-5.006.101a27.54 27.54 0 0 1-2.617-.02c-.843-.051-1.677.079-2.523.093-1.143.02-2.288.051-3.428.125a19.76 19.76 0 0 1-2.52-.03 3.43 3.43 0 0 0-1.044.085c-.427.105-.895.028-1.326 0-.729-.061-1.436.055-2.157.042-2.067-.032-4.139.081-6.198-.135a7.11 7.11 0 0 0-1.91-.032c-.264.044-.517-.083-.732-.168-.823-.329-1.643-.123-2.457-.016-.232.03-.427.111-.631-.03-.084-.059-.197-.036-.29-.032l-1.707.026c-.291 0-.616-.055-.811.19-.07.091-.247.061-.387.044l-.692-.087c.032.042.038.069.055.075.169.053.479 0 .447.202s-.29.182-.546.18c-.445 0-.89.026-1.334.038-.116 0-.291.012-.291-.099s.148-.085.236-.121c.291-.127.642-.113.974-.176a2.91 2.91 0 0 0-1.419-.067 1.07 1.07 0 0 1-.378.027c-.127-.013-.247-.049-.349-.104-.291-.168-.581-.014-.872 0-.044 0-.102.075-.122.121s.064.095.14.091c.273-.014.517.133.811.048.157-.044.387-.01.404.127s-.212.133-.355.139c-1.082.035-2.167-.011-3.236-.137-.291-.026-.291-.069-.241-.251.015-.026.015-.055 0-.081a.23.23 0 0 0-.101-.034c-.038-.004-.077 0-.111.012-.977.234-1.939.103-2.907-.065-.134-.022-.238-.038-.328.038-.035.028-.073.085-.055.111.055.075.177.075.291.083.535.034 1.073.02 1.61.046.264.046.534.075.805.087-.186.118-.426.186-.677.192-1.238.143-2.477-.034-3.715.051-.837.057-1.683.038-2.523.044a43.81 43.81 0 0 0-2.305.04 3.81 3.81 0 0 0 1.113.085 5.76 5.76 0 0 1 .459-.022l3.16-.03a52.61 52.61 0 0 1 2.111.018c.704.018 1.407-.036 2.113-.016.962.026 1.93.02 2.893.012l4.224-.032 4.742.02c.978.041 1.959.036 2.936-.016.582-.057 1.175-.013 1.727.127a2.48 2.48 0 0 0 .82.042c1.285-.089 2.572-.028 3.857-.063l2.439-.059c.439 0 .913.186 1.317-.093.017-.007.036-.012.055-.014a.21.21 0 0 1 .059.003.17.17 0 0 1 .052.018c.016.009.028.019.038.031.195.305.602.22.924.226.718.024 1.438.008 2.152-.049.982-.093 1.973-.139 2.965-.137.459 0 .918-.024 1.375-.014 1.41.03 2.817-.053 4.224-.065l2.939-.042 5.056-.091c.729-.02 1.476 0 2.203 0 .936-.02 1.867.03 2.8.02 1.401-.014 2.808-.135 4.218.028.481.059.974.055 1.454-.012.509-.072 1.032-.09 1.549-.055.675.042 1.343 0 2.015.02 1.799.055 3.602.081 5.404.044.648-.012 1.288.059 1.933.063 1.015 0 2.035 0 3.035-.046.948-.046 1.893.071 2.838.121a20.73 20.73 0 0 0 3.488 0 7.33 7.33 0 0 1 1.282 0c1.364.077 2.736-.018 4.094.081 1.776.131 3.564.026 5.34.168.192.029.392.03.585.003a1.8 1.8 0 0 0 .537-.16c.129-.051.275-.077.424-.074a1.06 1.06 0 0 1 .416.092c.654.273 1.34.234 2.035.125a.7.7 0 0 1 .267-.007.57.57 0 0 1 .233.092c.102.067.204.141.163.249s-.203.125-.337.117c-.756-.048-1.535.028-2.256-.218-.227-.077-.497-.141-.704.065-.028.025-.063.044-.104.058s-.086.02-.131.019c-.52-.059-1.044 0-1.558-.016-1.05-.048-2.102-.081-3.155-.089a53.03 53.03 0 0 1-4.049-.087 4.9 4.9 0 0 0-1.102.032c-.677.093-1.34-.077-2.003-.03a13.32 13.32 0 0 1-1.82.04c-1.247-.083-2.494.057-3.744.057-.826 0-1.654-.022-2.477 0-.64.01-1.262.156-1.913.089-1.058-.111-2.122.048-3.198-.018-.245-.012-.491.006-.727.053-.744.135-1.479-.012-2.218 0-.261-.009-.523.009-.776.055a2.44 2.44 0 0 1-1.087 0c-.358-.081-.721.048-1.088-.024-.133-.026-.415-.012-.395.18s.239.172.422.19.253-.065.375-.107c.433-.143.886-.065 1.035.224.084.166.209.18.398.202a34.9 34.9 0 0 0 2.945.03c.857-.01 1.718.014 2.575.03 1.399.028 2.791.154 4.181.154 1.329 0 2.666-.073 3.997-.099.843-.016 1.689-.024 2.529 0 .532.018 1.053.186 1.591.101 1.186-.186 2.384-.085 3.573-.107s2.302-.028 3.45 0l4.178.067c1.102.01 2.202.068 3.294.172 1.343.105 2.695.107 4.032.222s2.669.162 4 .251c1.186.079 2.363.222 3.547.331.258.024.52.022.779.038.145 0 .36-.014.363.131s-.212.125-.357.131c-.814.011-1.628-.015-2.437-.079l-4.651-.24a7.99 7.99 0 0 1-1.544-.164c-.308-.079-.604.046-.91.034l-3.724-.16c-.872-.042-1.77-.099-2.663-.097a15.02 15.02 0 0 1-1.316-.016c-.963-.091-1.931.024-2.89-.053-.296.012-.592-.016-.872-.083-.055-.02-.117-.027-.178-.02-.944.214-1.886.01-2.828-.014-.492-.012-.983.032-1.454.038-1.046.01-2.096-.032-3.145-.073-.304-.015-.609-.015-.913 0-1.262.073-2.526.154-3.779.174-.799.005-1.597.04-2.39.105-.756.067-1.535 0-2.303 0l-5.058.089c-.73.012-1.454 0-2.192.051.104.07.23.123.367.155s.283.043.427.031c1.305-.224 2.616-.115 3.948-.154.43.006.86-.008 1.287-.042.53-.063 1.018.111 1.538.137a56.14 56.14 0 0 0 3.913-.012c1.288-.026 2.582-.012 3.873-.014l5.91-.032c.177 0 .372-.012.386.148s-.162.162-.345.18c-.753.075-1.506 0-2.259.04h-.09c-.32.289-.657.079-.951 0-.48-.139-.942-.012-1.41 0-.03 0-.06.004-.087.012s-.053.021-.073.036c-.078.091-.049.261-.291.226s-.607.028-.825-.148c-.128-.101-.151-.067-.25.024-.023.036-.06.068-.107.089s-.104.034-.161.034-.112-.012-.16-.034-.085-.053-.107-.089c-.04-.039-.097-.069-.162-.085a.48.48 0 0 0-.202-.006c-.372.022-.726.202-1.119.065-.418.34-.985.067-1.474.17a1.68 1.68 0 0 1-.57.029c-.19-.023-.37-.078-.523-.16-.291-.143-.61-.087-.959-.04-.637.083-1.259.333-1.957.117-.325-.103-.715-.042-1.072-.055-.713-.022-1.405.257-2.117.04-.244-.073-.474.057-.718.046-.043.121.209.238-.02.327s-.337-.014-.448-.133c-.031-.032-.076-.056-.128-.069s-.109-.015-.163-.006c-.581.095-1.133-.038-1.7-.044s-1.218-.022-1.826 0c-.349.012-.73-.071-.951.232-.078.105-.328.087-.473.042a11.2 11.2 0 0 0-.934-.166c-.186-.04-.34-.081-.471.073s-.238.059-.334-.02a1.12 1.12 0 0 0-.399-.18 1.43 1.43 0 0 0-.473-.033c-.212 0-.613-.038-.512.289.008.018.009.038.004.057s-.015.037-.031.052-.036.029-.06.038a.25.25 0 0 1-.078.016.38.38 0 0 1-.181-.011c-.057-.018-.103-.049-.13-.088-.079-.097-.07-.251-.291-.253-.425 0-.849-.117-1.276 0-.184.049-.152.103-.059.188s.463.123.291.257c-.088.081-.207.143-.344.179s-.286.044-.429.023c-.582-.117-.622-.182-.154-.624a13.88 13.88 0 0 1-1.064.034c-.82-.032-1.631.085-2.465-.036-.948-.139-1.925.014-2.887.048l-4.346.212c-1.28.075-2.562.236-3.855.178-.157 0-.332-.014-.358.131-.024.063-.013.13.032.187s.12.1.209.12c.386.067.788.075 1.178.022-.082-.02-.166-.036-.247-.059-.143-.038-.242-.105-.183-.22a.17.17 0 0 1 .051-.063c.023-.018.051-.033.082-.044s.066-.017.101-.018a.37.37 0 0 1 .103.01c.189.032.404.034.532.166.16.164.27.121.398-.028.198-.228.55-.158.782-.097.332.085-.049.156-.093.257.268.046.526.113.532-.19 0-.071.035-.131.137-.148s.171.028.209.093c.105.186.195.166.291 0 .061-.097.229-.131.27-.018.122.337.5.172.77.245 0-.099-.061-.117-.133-.137-.122-.032-.378.04-.32-.137.044-.123.291-.099.407-.069.485.117 1.017-.03 1.491.141.035.01.074.014.111.012s.075-.01.107-.024c.448-.275.986-.059 1.454-.133.049-.01.157 0 .166.032.18.404.38.127.622.03s.581.014.843-.085c0 0 .096.051.113.085s-.052.089-.107.127a1.39 1.39 0 0 1-.554.224c-.211.038-.432.036-.641-.006v.085a10.12 10.12 0 0 0 .889.067l4.268-.028c1.419.014 2.849-.099 4.274.014.306.002.612-.011.915-.038 1.227-.04 2.451.034 3.678.012.872-.016 1.744.236 2.634.202.061 0 .121.01.176.029s.103.046.141.08c.439.511 1.104.259 1.697.279.041.257-.029.342-.383.348-.692.012-1.384 0-2.076 0-.085.008-.171-.006-.244-.038s-.126-.081-.151-.138c-.006-.022-.019-.042-.038-.06s-.043-.032-.072-.041-.06-.014-.091-.013-.063.007-.09.017c-.233.063 0 .103.017.154 0 .16-.168.127-.29.127h-1.477c-2.035-.036-4.041.034-6.062.061l-6.166.079a1.4 1.4 0 0 0-.631.093c1.117.03 2.114.014 3.111.024.907.01 1.8-.152 2.721-.032.378.051.855-.018 1.239 0 .66.042 1.293-.051 1.939-.04.985.016 1.971.026 2.956.099.538.038 1.105-.012 1.651.028 1.053.079 2.111.014 3.166.032 1.25.022 2.509.075 3.762.024s2.416-.016 3.625-.046c1.684-.042 3.373.014 5.059-.032 1.128-.03 2.267.065 3.392-.087.059 0 .14-.02.181 0 .511.271 1.09.075 1.633.115.184.014.355.026.367.178s-.146.182-.343.172c-.503-.028-.965.139-1.48.144-.398 0-.814.051-1.218.036-.736-.024-1.454-.113-2.204-.119-.494 0-.971.164-1.479.164-.166 0-.149.115-.219.178-.055.059-.14.102-.238.121s-.202.012-.294-.02c-.209-.071-.017-.182 0-.257-1.026-.216-2.061-.055-3.09-.046h-.642c-.367 0-.724 0-1.021.202-.238.166-.424.115-.508-.099-.05-.123-.201-.077-.291-.077-.599 0-1.186.107-1.788.057-.032.133.253.174.122.297-.055.047-.134.077-.22.085s-.174-.006-.245-.041c-.541-.19-1 .059-1.494.113-.173.044-.351.078-.532.101-.852-.01-1.71.133-2.556-.044a2.67 2.67 0 0 0-1.035.028c-.523.093-1.072.093-1.596 0-.849-.154-1.668-.053-2.5.061a5.22 5.22 0 0 1-1.32.075 10.04 10.04 0 0 0-1.828.014c0 .099.104.085.168.083 1.088-.038 2.172.034 3.265-.04.872-.056 1.744.081 2.617.018 1.261-.089 2.514.057 3.779 0 .532-.026 1.061-.111 1.593-.154.25-.02.695-.077.703.061 0 .202-.383.079-.596.113-.285.049-.561.123-.819.22.325.055.503.182.732 0 .047-.036.143-.083.192-.073.523.121 1.023-.063 1.547-.044 1.328.046 2.657.014 3.988-.016.625-.012 1.253.022 1.878.038a.62.62 0 0 1 .201.036c.062.022.116.054.157.094.09.089.314.151.195.291s-.291.046-.463.048c-.486.008-.966-.084-1.378-.265-.107.057-.052.107-.032.156s.091.131 0 .174-.209 0-.29-.044c-.256-.133-.565-.207-.884-.213s-.633.057-.898.181c-.058.027-.128.037-.197.03s-.13-.034-.173-.072a.97.97 0 0 0-.293-.09c-.105-.016-.214-.016-.32-.001-.157 0-.328 0-.262.18.018.046 0 .109-.069.091-.497-.149-.939.457-1.5-.085.203.489.755.574 1.218.404a4.23 4.23 0 0 1 1.84-.186c.372.034.701.121 1.102 0 .082-.026.171-.039.261-.038s.179.016.26.044a.62.62 0 0 1 .208.118c.055.049.094.107.114.168.026.063.052.162.136.152.454-.05.916.083 1.364-.026.122-.03.148-.077.073-.172-.14-.176.017-.22.247-.228l2.27-.079a44.23 44.23 0 0 1 1.334-.024c.157 0 .332.022.338.162s-.157.139-.291.164a4.74 4.74 0 0 1-.913.063.93.93 0 0 0-.307-.003c-.101.016-.195.049-.274.096.662.038 1.329.009 1.979-.087.628-.578 1.503-.354 2.326-.352.381 0 .765-.034 1.146-.061.133 0 .235-.052.226-.164s-.122-.139-.258-.137c-.214-.025-.433.002-.623.075-.168.085-.345.17-.45-.057-.008-.012-.021-.023-.038-.031a.13.13 0 0 0-.055-.011c-.02 0-.039.004-.056.011s-.029.018-.037.031c-.323.356-.753.178-1.134.091a1.13 1.13 0 0 0-.538.012c-.711.14-1.464.14-2.174 0-.221-.045-.416-.15-.628 0-.029.02-.108.038-.128.026-.407-.222-.928-.087-1.364-.212-.113-.03-.258-.055-.241-.164s.143-.111.244-.119c.777-.049 1.56-.023 2.326.077.081 0 .163.111.238.043.239-.214.445-.188.655.016.011.007.025.011.039.014s.03.002.045 0c.674-.279 1.401-.133 2.116-.139s1.433-.032 2.157 0c.776.028 1.561-.016 2.326.02.192 0 .451-.036.497.148s-.224.216-.392.265c-.136.04-.281.059-.428.057a1.44 1.44 0 0 1-.424-.069 1.83 1.83 0 0 0-.811-.05c-.102.012-.244.036-.244.119s.162.131.273.133c.291 0 .581-.018.872-.014l3.529.061c1.099 0 2.192.063 3.3 0 1.436-.081 2.878.071 4.314.135l4.227.19 6.797.354 4.997.295c.765.026 1.521.133 2.282.202l4.384.364c.41.036.811.113 1.221.156.29.033.587.024.872-.024a2.86 2.86 0 0 0-.604-.095c-.625.028-1.198-.182-1.817-.176-.169 0-.337-.022-.495-.065-1.11-.287-2.29-.267-3.436-.404-.636-.071-1.384 0-1.878-.414a.78.78 0 0 1-.075-.093 2.17 2.17 0 0 1 .959.034c.959.154 1.951.127 2.907.279 1.018.162 2.035.281 3.073.404.36.05.724.087 1.09.111 1.248.091 2.487.229 3.713.414 1.378.182 2.785.255 4.133.544.137.017.275.023.413.018.582.018.675.147.393.489.157.067.29-.065.439-.026s.241.071.232.172c0 .022-.009.044-.025.063s-.037.036-.064.048-.057.019-.088.021-.064-.002-.093-.01c-.468-.093-.991-.02-1.422-.22a1.7 1.7 0 0 0-.625-.077c-.13 0-.322 0-.311-.125s.218-.146.358-.125c.348.075.707.124 1.07.148.058 0 .116 0 .215.012-.291-.234-.712-.178-1.05-.245-.438-.06-.884-.094-1.331-.101-.044 0-.108 0-.134.012-.581.404-1.27.127-1.907.109-1.453-.04-2.884-.218-4.326-.338l-4.968-.42c-.427-.034-.872-.02-1.291-.028-.267 0-.29.083-.157.214.18.172.404.319.582.501.13.141.221.049.264-.063.18-.459.404-.554 1.079-.471.323.068.653.118.988.148a.32.32 0 0 1 .156.027c.045.021.079.053.094.09.032.103-.087.121-.195.141s-.168.012-.18.077.099.093.175.125a2.08 2.08 0 0 0 .465.202c.122.02.526.218.366-.154-.009-.015-.01-.032-.002-.048a.08.08 0 0 1 .042-.038c.02-.009.044-.013.067-.011s.045.01.062.022c.346.218.802.257 1.209.376.154.044.352.111.291.247s-.291.113-.436.063c-.375-.131-.759-.012-1.137-.044l-3.605-.297-2.346-.246c-.451-.046-.872.069-1.326.075-.09 0-.189.04-.27.026-1.538-.263-3.131-.036-4.672-.283-.577-.062-1.16-.091-1.744-.087-.256-.012-.535.028-.701-.168-.04-.046-.145-.085-.2-.044-.34.253-.582.069-.872-.063a1.25 1.25 0 0 0-.401-.051l-3.815-.158c-.759.012-1.518-.01-2.273-.067 0 .034 0 .067-.023.099.415.059.825.135 1.244.172.994.087 2.003.119 2.997.184l2.518.127 3.916.202c.375.012.715.127 1.084.133 1.009.016 2.012.071 3.015.127.571.06 1.136.149 1.689.267.369.051.575.239.34.564zm-67.306-.018c.654-.032 1.308.101 1.968 0 .16-.024.378 0 .387.149s-.198.166-.366.174a2.07 2.07 0 0 0-.928.147c1.233-.036 2.326-.139 3.489-.097-.111-.093-.332-.061-.337-.202s.215-.139.348-.224c-.25-.01-.439-.032-.561.133-.015.029-.042.054-.077.072s-.078.029-.122.03-.088-.006-.126-.022-.069-.039-.088-.067a.81.81 0 0 0-.351-.173 1.08 1.08 0 0 0-.431-.013c-.581.032-1.133 0-1.7.018-.364.014-.739-.036-1.09.065-.093 0-.186 0-.291-.012-.151-.018-.34-.036-.332-.172s.204-.113.352-.109.247.054.314-.061c-.493-.117-1.027-.123-1.526-.018.459.497.89.6 1.468.386v-.006zm32.179-2.172h-.552a31.76 31.76 0 0 1-2.233.071c-.738-.028-1.471.045-2.206.012-.076 0-.169 0-.169.075s.087.081.166.087h.229c.166 0 .381 0 .396.152s-.204.178-.367.18c-.552 0-1.104 0-1.654-.014-.215 0-.535.081-.599-.121s.291-.174.448-.271a.64.64 0 0 0 .084-.083l-15.8.317c.417.03.837.041 1.256.034.343 0 .706-.085.971.166.108.099.238.051.352-.028.334-.224.773-.164 1.163-.188.036-.005.073-.005.109.002s.07.018.098.035.05.038.064.062.021.049.019.075c0 .119-.16.143-.29.168-.239.042-.428-.083-.733-.135.189.192.387.321.599.273.43-.095.849.01 1.267-.034 1.137-.115 2.286-.155 3.434-.121 1.241.038 2.477-.049 3.712 0 .797.028 1.576-.113 2.384-.038.936.089 1.913.19 2.831.093 1.134-.117 2.251 0 3.37-.067.138-.001.276.007.413.022.846.055 1.695.214 2.602-.016a10.29 10.29 0 0 1-2.149-.202c.451-.008.457-.334.785-.497v-.006zm8.14-.34c8.14.02 16.233.372 24.324.915-.179-.104-.395-.174-.625-.202-1.041-.042-2.073-.154-3.108-.232-1.386-.107-2.788-.087-4.177-.174-2.567-.158-5.14-.259-7.713-.279-1.529-.01-3.052-.055-4.576-.109-1.372-.056-2.749-.026-4.113.087l-.012-.006zm-59.741-6.748c3.54 0 7.078.012 10.616-.133-1.037.016-2.069-.156-3.102-.073-.686.074-1.388.003-2.017-.202-.123-.055-.262-.092-.407-.106a1.44 1.44 0 0 0-.433.022c-.099.024-.244.034-.163.143.142.186-.073.164-.209.178-.138-.003-.276.005-.41.024-.352.105-.617.113-.855-.156-.166-.186-.407-.129-.5.085-.046.109-.183.107-.291.105-.322 0-.645 0-.965-.03-.428-.013-.855.038-1.253.15l-.011-.006zm60.703 7.158v.107c1.05-.067 2.035.178 3.099.17 1.744-.034 3.488.034 5.216.202.114.02.235.016.346-.01s.21-.076.282-.141c-.361 0-.64.085-.873-.03-.598-.305-1.29-.235-1.95-.228-1.163.012-2.326 0-3.489-.055-.854-.036-1.738-.008-2.619-.008l-.012-.006zM140.424 5.7h5.451c-.07-.135-.323-.141-.25-.283s.218-.143.369-.162a1.94 1.94 0 0 0 .695-.186c-.502.039-1.007.054-1.512.046a.54.54 0 0 0-.264.048c-.077.037-.133.092-.158.154a.21.21 0 0 1-.059.123c-.035.037-.082.067-.138.087a.51.51 0 0 1-.182.029c-.063-.001-.125-.014-.179-.036-.084-.024-.177-.067-.262-.03-.29.127-.369-.024-.441-.172-.044-.085-.032-.202-.236-.202h-2.552c.468.067.947.016 1.398.158a.5.5 0 0 0 .262-.032c.348-.129.535 0 .712.202-.893.143-1.776.123-2.654.257zm-13.923-.35c-.206.584-1.005.376-1.561.665 2.326-.182 4.527-.046 6.719-.202-.468-.159-.995-.214-1.509-.156a.87.87 0 0 1-.32.008c-.106-.017-.203-.053-.282-.105-.267-.202-.581-.232-.843-.026-.078.073-.183.129-.304.162a.98.98 0 0 1-.382.024c-.319-.031-.641-.041-.962-.03-.294.004-.62.034-.556-.34zm75.135 8.051c-4.581-.404-9.169-.719-13.873-.859.963.226 1.87.131 2.756.188.657.042 1.311.103 1.966.115 1.655.014 3.305.142 4.924.382a3.11 3.11 0 0 0 .73.049 8.49 8.49 0 0 1 2.488.154 2.72 2.72 0 0 0 1.009-.028zm-61.645-7.746l-1.05-.17c-.11-.018-.218-.042-.227-.133s.09-.101.172-.131.189 0 .221-.095c-.628-.046-1.233.055-1.957.077.346.137.582.061.823.055a.44.44 0 0 1 .125.008.38.38 0 0 1 .112.041c.032.019.059.042.078.068s.031.055.034.084c.032.158-.154.162-.291.172-.426.039-.856.052-1.285.036a5.12 5.12 0 0 0-1.701.107 62.69 62.69 0 0 0 4.946-.119zm7.087 10.961c.329.071.741-.047.945.238.096.139-.143.156-.241.23a7.74 7.74 0 0 0 2.224-.04c-.066-.06-.159-.104-.264-.124s-.217-.016-.318.013c-.119.026-.273 0-.291-.103s.157-.117.274-.099a1.89 1.89 0 0 0 .822-.109c-1.093-.115-2.122.055-3.151-.006zM112.62 5.636c-.555.422-.741.485-1.317.404-.188-.039-.386-.052-.581-.038-.221.024-.466.055-.556-.17-.009-.018-.024-.034-.044-.047s-.045-.022-.072-.026-.054-.005-.08 0-.051.014-.071.026c-.23.182-.518.174-.826.188-.103.008-.202.033-.289.072s-.159.092-.211.154c1.5-.091 2.997 0 4.593-.083-.293-.16-.546-.243-.546-.481zm24.245 7.966v.113h1.067c.149 0 .361 0 .367.131s-.216.107-.355.119c-.381.032-.779-.055-1.201.054.712.168 1.622.152 2.864-.034-.149-.146-.169-.115-.872-.323-.643-.192-1.25-.063-1.873-.061h.003zm3.78-6.851c2.163-.105 4.334.097 6.491-.162-2.166.042-4.334-.061-6.494.162h.003zm5.698-1.186v.077c1.296.065 2.597.049 3.889-.048-.261-.094-.563-.118-.849-.069-.349.034-.702.048-1.055.042-.136 0-.291 0-.363-.103s.046-.172.145-.238.233-.17.157-.285c-.413.186-1.014.19-1.198.594 0 .026-.171.026-.261.028-.175.004-.323.002-.465.002zm-15.699 4.098h-4.212v.115c1.406.017 2.812-.021 4.212-.115zm-8.919.43c.66.02 1.322-.014 1.971-.101.137-.022.375.036.375-.101s-.233-.087-.372-.099c-.509-.044-1.003.145-1.526.02-.25-.059-.34.125-.448.283v-.002z"/><path d="M181.58 9.057c-.055-.19-.218-.192-.366-.202-.971-.073-1.931-.245-2.922-.16-.111 0-.23 0-.25-.097s.105-.125.203-.148a4.24 4.24 0 0 1 1.454-.105 1.12 1.12 0 0 0 .608-.049c-.32-.104-.671-.156-1.024-.15a7.86 7.86 0 0 1-2.424-.277c-.422-.129-.968-.097-1.454-.075l-1.381.012c-.174 0-.421 0-.43-.166s.247-.166.43-.216c.872-.242 1.765-.038 2.646-.055l3.546.028h5.062c.462-.022.936.105 1.407-.012.072-.095-.326-.152-.07-.242a.67.67 0 0 1 .356-.049c.124.016.234.065.307.136.32.323 1.075.469 1.764.279l-1.049-.087c-.096 0-.25.012-.23-.101 0-.075.134-.087.221-.079a8.3 8.3 0 0 0 1.189.075c.05 0 .146.034.149.059.052.457.555.291.898.297s.712.125.837-.249c.038-.113.291-.075.462-.044s.349.065.291.202c-.087.232.116.22.32.228l.811.038a1.47 1.47 0 0 0-.651-.105c-.146-.012-.291-.051-.256-.176s.171-.121.323-.115l3.558.232c.413-.012.776.19 1.209.111.134-.024.239.077.253.19.021.186.253.166.419.186.253.032.078-.113.119-.174.084-.111.221-.099.358-.085l1.415.131c.143.016.335 0 .361.15s-.221.099-.326.19l1.163.063c.134 0 .291.022.352-.099.011-.031.033-.06.064-.084s.069-.042.111-.054.09-.016.135-.013.09.014.129.031c.235.081 0 .202.017.285l2.852.329c.271.034.555-.026.814.075.093.036.221.059.195.152s-.154.093-.259.095a7.82 7.82 0 0 1-2.18-.178c-.249-.054-.512-.069-.771-.042-.159 0-.267 0-.241.154s.14.121.268.099a2.5 2.5 0 0 1 .944.085c.12.024.25.065.213.176s-.154.097-.265.095c-.427 0-.855 0-1.285-.014-.247 0-.325-.131-.32-.269-.186-.016-.223.077-.316.109a.35.35 0 0 1-.177.028c-.062-.006-.118-.028-.158-.061-.018-.014-.032-.03-.041-.048s-.013-.037-.011-.055.008-.037.02-.054a.16.16 0 0 1 .05-.044c.107-.085.212-.172.066-.277a.47.47 0 0 0-.212-.092.6.6 0 0 0-.25.008.79.79 0 0 1-.224.032c-.168-.01-.392-.117-.456.063-.015.042.291.152.454.202s.438-.014.351.202c-.072.17-.29.091-.476.077l-2.794-.192c-.178 0-.404.024-.468-.135s.206-.133.267-.202c.291-.299.651-.22 1.029-.168a1.47 1.47 0 0 0 .643.012 6.81 6.81 0 0 0-2.056-.188c-.072 0-.119.02-.107.075.087.39-.332.293-.582.265a14.73 14.73 0 0 0-1.95-.17c-.899.022-1.745-.178-2.617-.234l-.229-.012c-.105 0-.245-.02-.274.075s.102.145.227.162l1.538.182a21.27 21.27 0 0 0 2.535.281c1.381.04 2.712.297 4.085.382l3.779.39 2.945.331 2.34.305a.34.34 0 0 1 .111.022.24.24 0 0 1 .086.054.15.15 0 0 1 .042.075.13.13 0 0 1-.009.08c-.029.103-.035.224-.224.255s-.189-.071-.262-.156c-.157-.184-.448-.127-.66-.057-.069.033-.15.052-.233.056a.67.67 0 0 1-.244-.032 5.95 5.95 0 0 0-1.485-.315c-.291-.032-.637-.202-.872.127-.076.113-.335-.061-.41-.018-.439.245-.416.038-.448-.186-.017-.117-.218-.131-.369-.158-.674-.109-1.366-.125-2.035-.202-.152-.014-.302-.038-.448-.071-.229-.053-.415-.087-.599.093-.133.127-.375.192-.43-.077-.017-.093-.131-.077-.215-.081-.561-.024-1.11-.131-1.651-.17-.986-.069-1.931-.255-2.907-.368s-1.878-.059-2.791-.289c-.291-.073-.805-.202-1.114.129-.075.079-.226.02-.34-.014a3.26 3.26 0 0 0-.91-.051c-.093 0-.209.012-.215.089s.114.085.204.091l.872.059c.399-.009.797.044 1.163.156.201.057.422.072.636.044.323-.02.643-.065.91.117a.18.18 0 0 0 .06.024c.023.005.045.006.068.004.582-.109 1.117.073 1.678.107l2.869.214a1.66 1.66 0 0 1 .224.034c.113.022.29.032.259.143s-.198.129-.326.117c-1.273-.127-2.579 0-3.835-.275-.383-.083-.828-.026-1.235-.065l-5.55-.35-1.599-.103c-.29-.036-.29-.103-.16-.245.053-.055.21-.095.082-.18a.48.48 0 0 0-.215-.04c-.12 0-.224.044-.215.133.034.382-.387.354-.692.333l-6.396-.261c-1.544-.065-3.102.01-4.651-.071-1.335-.071-2.663.051-3.992-.018-.501-.04-1.007-.044-1.509-.012-.171.016-.43.014-.433-.154s.238-.15.404-.154l2.288-.044 3.029.02c.794-.03 1.553.085 2.326.071a4.4 4.4 0 0 0 1.093-.083c.308-.085.582.095.895.089h2.035l1.335.095zm13.815 9.601c-.344-.303-1.03-.089-1.294-.517 1.099-.142 2.186.065 3.267.02-1.101-.202-2.229-.19-3.34-.224l-4.526-.19a2.08 2.08 0 0 1-.274-.024c-.107-.018-.215-.059-.209-.146s.146-.127.271-.125l1.104.032c.195 0 .352.01.462-.174.143-.242.515-.158.768-.093s.076.202-.029.321l2.753.168c.241.016.416 0 .477-.202.021-.047.068-.086.13-.11a.38.38 0 0 1 .204-.016c.14.016.224.075.189.18s-.084.162.09.166.52.089.582-.059c.244-.473.558-.117.735-.018.247.133.372.19.648.024.48-.289 1.858-.125 2.186.253.008-.044.032-.087.069-.123a.38.38 0 0 1 .146-.084.53.53 0 0 1 .187-.024.5.5 0 0 1 .18.042.65.65 0 0 0 .24.045.65.65 0 0 0 .24-.045c.11-.042.29-.071.346-.016.203.224.581.143.825.251.169.073.183-.02.244-.067.047-.044.116-.073.193-.083a.43.43 0 0 1 .223.029c.198.085.18.263.247.392s-.198.089-.317.117c-.305.073-.607-.02-.913-.02-.581 0-1.145-.129-1.744-.073-.129.022-.266.013-.386-.026s-.219-.106-.277-.19c-.098-.139-.29-.125-.505-.133.54.552 1.375.495 2.116.521l4.538.299c.703.037 1.401.113 2.087.226.131.02.317 0 .311.14s-.203.162-.346.153l-1.878-.133c-.203-.02-.401-.113-.395.137.001.019-.003.038-.013.056s-.025.034-.045.047a.21.21 0 0 1-.068.031.28.28 0 0 1-.08.009c-.16 0-.213-.069-.207-.168 0-.052 0-.149-.072-.129-.463.156-.974-.113-1.413.077a1.48 1.48 0 0 1-.672.042l-2.66-.077a.82.82 0 0 1-.271-.027.64.64 0 0 1-.223-.11c-.022-.022-.053-.04-.09-.049a.27.27 0 0 0-.114-.005c-1.453.271-2.881.056-4.323.024l-.598.01c-.149 0-.291-.026-.32-.139s.128-.123.232-.162a1.07 1.07 0 0 1 .369-.082 1.12 1.12 0 0 1 .381.047c.083.038.18.059.28.06s.197-.019.282-.056zM210.953 8.55a11.25 11.25 0 0 1-1.375-.099 32.2 32.2 0 0 0-4.017-.497l-5.954-.483c-.872-.024-1.744-.192-2.634-.249-.128 0-.241-.057-.232-.164s.136-.137.264-.141a3.51 3.51 0 0 1 .459.018c.358.04.704.125 1.059-.051.174-.089.421 0 .628.03l3.508.291c1.367.091 2.71.36 4.07.493l3.509.485a.76.76 0 0 1 .372.113c.157.135.291.109.521.053.497-.131 1.009 0 1.471.095l2.488.453c.149.04.338 0 .497.026a.35.35 0 0 1 .111.023.26.26 0 0 1 .086.054c.022.022.037.048.043.075a.13.13 0 0 1-.007.08.17.17 0 0 1-.053.063c-.024.018-.053.032-.086.041s-.068.013-.104.011a.32.32 0 0 1-.1-.021c-1.047-.289-2.204-.245-3.253-.523-.395-.105-.762-.261-1.271-.178zM6.911 23.934c.698-.089 1.055.317 1.262.663.064.105.064.226.198.313a.19.19 0 0 1 .064.14c-.372.111-.291.418-.526.582-.052.04-.115.072-.185.094a.81.81 0 0 1-.222.037 1.39 1.39 0 0 0-.709.178c-.317.166-1.047-.038-1.291-.335-.512-.625-.27-1.223.634-1.601.233-.097.477-.05.776-.071zm195.461-12.373c-.123 0-.291.034-.361 0-.686-.348-1.482-.164-2.227-.236-.11-.012-.226-.014-.264-.097s.072-.152.189-.188a2.62 2.62 0 0 1 1.311.016 15.69 15.69 0 0 0 1.584.176l2.992.297 3.532.386a13.47 13.47 0 0 1 1.921.275 10.89 10.89 0 0 0 1.666.224l1.247.218c.105.018.221.048.201.143s-.137.105-.247.107a10.41 10.41 0 0 1-1.404-.162l-3.469-.457c-1.305-.071-2.564-.315-3.854-.441l-2.817-.263zM179.327.557c-.765-.028-1.521.097-2.247-.119-.314-.093-.625.085-.951.057l-2.241-.091c-.381-.032-.841.065-1.195.016-1.053-.139-2.088.127-3.125-.014-.405-.055-.823-.049-1.233-.085-.172-.014-.422-.022-.372-.202s.253-.103.421-.099h3.681c.046 0 .107-.024.134-.01.613.344 1.253-.051 1.889.034.576.07 1.161.094 1.744.071l3.818.077a7.37 7.37 0 0 1 .962.061c.107.01.218.036.238.125s-.102.146-.218.174c-.442.095-.887-.028-1.305.006zM27.985 22.364c.046.442-.398.919-.887.95-.727.044-1.488-.461-1.529-1.01.019-.218.148-.424.363-.583s.503-.261.815-.288c.741-.036 1.171.287 1.238.932zm183.402-7.586c-.184-.061-.434-.02-.399-.168s.259-.101.422-.097.291.034.357 0c.291-.168.55-.202.814-.024.207.135.564.139.652.38.043.125.18.133.314.046.337-.22.808-.049 1.177-.202.099-.04.23.046.267.137s-.061.105-.154.125c-.057.008-.109.029-.15.058s-.067.067-.076.107c.378.103.662.042.872-.263.067.084.099.179.092.275s-.05.189-.127.268c-.131.149-.398.093-.582.042a9.77 9.77 0 0 0-2.229-.202l-1.503-.137c-.119-.012-.274 0-.291-.109s.119-.162.253-.19c.058-.022.151-.03.291-.049zm-171.413 8.02c.105.202-.163.228-.23.348-.082.218-.222.424-.413.606a.74.74 0 0 1-.291.158c-.291.073-1.32-.465-1.253-.679a.43.43 0 0 0 0-.368c-.02-.038.029-.099.058-.148.224-.368 1.401-.606 1.875-.382.264.119.195.321.253.465zM183.629.341l2.78.113 3.145.228c.166.018.378.016.352.184s-.218.202-.413.192l-1.052-.075c-.811-.089-1.614-.202-2.445-.121a3.33 3.33 0 0 1-.774-.051 3.72 3.72 0 0 0-1.311-.057.71.71 0 0 1-.23.001c-.076-.012-.146-.037-.206-.071-.119-.067-.258-.137-.206-.261s.224-.075.36-.083z"/><path d="M182.004 1.457c-.956-.133-1.886.063-2.823.059-.123-.002-.242-.03-.343-.079-.09-.038-.206-.105-.29-.036-.32.263-.75.107-1.125.16-.16.022-.323 0-.358-.133-.005-.027-.003-.054.007-.08s.028-.05.052-.072.053-.039.087-.052a.39.39 0 0 1 .11-.024 7.58 7.58 0 0 1 1.48-.148c.447.032.872-.014 1.322.018.076 0 .183.012.224-.016.564-.404 1.21.048 1.811-.085.183-.042.338.137.291.295s-.262.178-.445.194zm9.399 9.253l-3.154-.214-2.242-.127c-.091.003-.183-.003-.273-.018-.148-.024-.337-.053-.308-.19s.206-.154.363-.146l1.189.091 2.309.119 2.616.158c.174.01.372.03.361.182s-.218.123-.367.129h-.506l.012.016zm1.454-5.277l-3.367-.285c-.52-.079-1.061-.087-1.593-.135a3.06 3.06 0 0 1-.442-.089c-.034-.008-.064-.022-.086-.042a.1.1 0 0 1-.036-.069c-.001-.033.016-.064.046-.089a.23.23 0 0 1 .12-.046c.089-.014.182-.018.273-.012l3.311.283 1.372.069c.361 0 .663.202 1.035.214.061 0 .096.061.067.101a.17.17 0 0 1-.058.045c-.023.012-.05.02-.078.024-.163.018-.332.018-.564.032zm-2.55-4.334c.372-.348.872-.321 1.302-.267 1.163.148 2.384.073 3.562.24l.75.141c.16.028.311.121.29.222-.046.143-.25.077-.389.061l-3.46-.261-2.055-.137zm-23.17 14.273c-.918.049-1.744-.123-2.616-.115-.372 0-.73.042-1.096.069-.236.018-.663.081-.689-.162s.363-.224.648-.251a6.46 6.46 0 0 1 1.718.075c.509.089 1.093 0 1.637-.049.494-.042.927.139 1.407.125a.32.32 0 0 1 .103.016.25.25 0 0 1 .083.046c.022.02.037.042.045.066s.007.049-.001.073c-.021.115-.166.105-.291.105h-.948zm7.884-.089c-.511-.018-1.078.091-1.517.028-.582-.081-1.07.105-1.558.051a7.44 7.44 0 0 0-1.425-.105 2.01 2.01 0 0 0-.357.04c-.143.034-.291.089-.291-.075 0-.117-.116-.285.186-.289.436 0 .857-.109 1.314-.018.93.18 1.869-.038 2.808-.022a4.67 4.67 0 0 1 .872.057c.198.038.497.044.457.242s-.335.022-.489.091zm18.126-13.321c-.674-.085-1.352-.036-2.035-.141-.555-.059-1.116-.089-1.677-.091-.477-.026-.925-.202-1.436-.107-.21.042-.256-.119-.131-.242.041-.039.097-.07.161-.09a.55.55 0 0 1 .205-.02c.695.063 1.396.075 2.064.263.227.063.541-.032.814-.036l2.291.105c.154 0 .34.069.291.202-.096.18-.366.125-.547.158zm-11.372 5.181l-4.716-.107-.639-.051c-.143-.014-.291-.042-.259-.174s.18-.133.323-.131l2.439.057 2.884.148c.162.024.444-.02.424.16s-.291.099-.456.099zm-31.258-4.529c-.686.04-1.305-.115-1.93-.036a4.48 4.48 0 0 1-1.355.034c-.154-.026-.389.018-.384-.152 0-.137.221-.202.378-.186.556.038 1.108-.093 1.646-.03.788.089 1.558-.057 2.325-.022h.32c.105 0 .25.042.253.15.001.044-.022.086-.065.118a.3.3 0 0 1-.165.054c-.335.055-.679.079-1.023.071zm10.536 2.882c-1.006.024-1.794-.079-2.579.03-.314.044-.523-.152-.791-.218-.09-.022-.093-.107-.038-.17a.24.24 0 0 1 .127-.072c.054-.013.112-.012.164.003 1.183.202 2.387.069 3.579.071.311 0 .61.038.913.059a.3.3 0 0 1 .168.046c.045.03.071.072.073.115 0 .115-.145.131-.267.133l-1.349.002zm14.088-.392c1.087.17 2.218-.016 3.325.137l.317.038c.151.032.311.085.291.212s-.218.137-.363.129l-3.992-.127c-.142 0-.291-.024-.308-.148s.11-.172.25-.202.305-.024.48-.04zm17.498 13.283l-1.163-.063c-.192 0-.387-.03-.471.166a.17.17 0 0 1-.067.065c-.031.017-.068.028-.107.031s-.078-.001-.113-.012-.066-.029-.088-.051c-.181-.295-.547-.202-.852-.248-.061 0-.125 0-.183-.018-.178-.041-.474-.016-.439-.202s.291-.119.494-.135c1.02-.087 2.009.097 3.012.139.186 0 .468-.04.468.16s-.273.158-.465.17c-.038.002-.085 0-.026 0zm12.666-1.669c.529-.127 1.058.02 1.593-.022.16-.012.331 0 .36.133s-.145.202-.322.202a9.25 9.25 0 0 1-1.744-.024c-.559-.093-1.163.049-1.684-.22-.067-.034-.2-.028-.197-.105s.136-.119.235-.119l.919.022c.151 0 .314 0 .415-.095s.213-.148.39-.083-.009.186.035.311zm-28.097-5.167c-.463.042-.896-.061-1.303.095a.59.59 0 0 1-.251.018.49.49 0 0 1-.22-.086c-.127-.077-.293-.118-.462-.113-.175 0-.381-.014-.378-.168 0-.188.244-.16.419-.158l1.508.046 1.783.018c.156 0 .392-.024.392.139s-.221.125-.366.123c-.396-.002-.759.198-1.122.085z"/><path d="M186.752 1.58c-.707-.125-1.474 0-2.236-.048a1.68 1.68 0 0 1-.674-.178c-.102-.051-.218-.099-.154-.202.026-.045.076-.083.139-.105s.135-.027.204-.015c1.066.166 2.154.141 3.238.178.154 0 .331.014.349.152s-.154.16-.311.174l-.555.044zm4.474 14.057c-.067-.182-.39-.259-.151-.382.191-.101.331.018.433.137.253.299.741.182 1.104.291.204.061.599-.032.561.202s-.415.15-.622.115a17.52 17.52 0 0 0-3.003-.182c-.131 0-.314 0-.334-.113-.029-.154.189-.164.323-.16.537.012 1.084-.121 1.689.091zm15.05 2.089a.97.97 0 0 1-.23.263c-.171.099-.395.147-.532.283-.043.044-.142.032-.212 0s-.07-.083-.041-.139.271-.085.024-.146a.25.25 0 0 0-.079-.014c-.028 0-.055.004-.08.012s-.046.02-.063.035-.029.033-.034.051c-.056.121-.168.225-.32.295-.166.103-.291.202-.486.038-.148-.113-.29.028-.415.034-.253.012-.512.02-.355-.245a.49.49 0 0 0 0-.346c-.012-.042-.001-.086.03-.123s.08-.065.139-.079.136-.016.2.002.115.053.143.097c.047.059.115.11.196.148a.8.8 0 0 0 .272.069.87.87 0 0 0 .288-.026c.091-.024.173-.064.238-.114a.72.72 0 0 1 .241-.079c.291-.05.657.174.916-.103.02-.026.137.014.16.085zm-31.848.453h-.915c-.306 0-.939-.461-.931-.669.002-.032.02-.063.051-.087s.074-.04.121-.044a1.75 1.75 0 0 1 .68.018c.151.036.238.127.134.224-.314.295.099.237.261.249.457.03.916-.081 1.373 0l.311.055c.098.026.2.073.177.164s-.14.105-.25.107h-1.012v-.016zm32.778-8.767l-1.026-.141c-.119-.016-.241-.083-.142-.148.186-.121-.219-.404.258-.418a.89.89 0 0 0 .288-.041.67.67 0 0 0 .233-.125c.235-.17.613-.01.872.071s.04.224-.058.339c-.065.085-.104.179-.114.275.001.027-.007.054-.023.079a.22.22 0 0 1-.07.065.31.31 0 0 1-.102.039c-.037.008-.077.009-.116.005zm-54.293-7.179c.834.077 1.671-.044 2.506-.012.174 0 .424-.026.404.164-.018.15-.23.125-.404.129l-2.326.085a4.59 4.59 0 0 1-.77-.059c-.128-.016-.245-.059-.224-.168s.145-.133.273-.137l.541-.002zm31.222 13.327c-.36-.113-.77.036-1.192.065a1.66 1.66 0 0 1-.41-.024c-.18-.036-.482-.038-.465-.202s.314-.063.474-.105c.509-.129 1.044-.05 1.55-.103a3.35 3.35 0 0 1 1-.042c.122.024.29-.043.29.113.004.06-.026.119-.084.164s-.14.072-.227.075l-.936.061zM124.594 1.256h-.962c-.137 0-.291-.046-.291-.162s.181-.133.314-.135a8.18 8.18 0 0 1 1.096-.028c.411.023.825-.006 1.221-.085.291-.036.762-.135.8.16.029.234-.436.188-.71.202-.485.05-.977.066-1.468.048zm37.241 7.801a21.9 21.9 0 0 1-3.553.22h-.291c-.145-.012-.29-.038-.29-.16s.148-.158.29-.16l2.759-.012a3.36 3.36 0 0 1 1.085.111zm12.236-2.08h-1.428c-.171 0-.369-.02-.351-.182.003-.03.016-.06.038-.086a.26.26 0 0 1 .088-.066c.036-.017.077-.028.12-.033a.4.4 0 0 1 .129.007c.939.158 1.878-.057 2.814.03.165.014.383 0 .386.16s-.232.166-.415.168h-1.381v.002zM138.953.881a18.11 18.11 0 0 1-2.21.059c-.177 0-.424.024-.436-.15s.244-.166.416-.172l2.785-.02c.078 0 .157.01.192.069s0 .119-.093.162-.206.067-.319.076-.227.001-.335-.024zM165.98 8.95c-.171.188-.421.135-.631.164a17.12 17.12 0 0 1-2.7.103c-.175 0-.425.012-.404-.172s.261-.152.439-.141c.715.038 1.415-.119 2.142-.026.369.046.736.236 1.154.073z"/><path d="M171.225 7.416h1.293c.154 0 .335.016.32.166s-.186.16-.343.162h-2.616c-.146 0-.291-.032-.277-.162s.152-.16.291-.162h1.335l-.003-.004zm9.733 8.006c-.608.202-1.259-.115-1.87.063a.78.78 0 0 1-.273 0c-.105-.014-.227-.036-.212-.135.006-.033.031-.062.069-.082s.085-.029.132-.025c.325.034.607-.327.953-.048.454-.315.977-.051 1.454-.085.186-.014.418-.051.456.119.044.202-.253.133-.401.174a1.78 1.78 0 0 1-.308.02zm16.181-14.143l2.125.162c.166.014.375.046.334.202s-.27.123-.447.113l-2.009-.103c-.198-.012-.5.036-.486-.182s.294-.178.483-.192zm23.751 13.612a1.92 1.92 0 0 1 .651.03c.082.028.175.055.163.133-.001.016-.007.032-.017.047s-.025.028-.043.038a.22.22 0 0 1-.062.023c-.023.005-.047.006-.07.003-.613-.065-1.244-.056-1.84-.202-.093-.022-.18-.093-.116-.146.157-.133.122-.37.447-.404.323-.014.644.044.916.166.209.069-.026.182-.029.311zM202.587 2.028h-.047c-.209 0-.439.028-.581-.119a.07.07 0 0 1-.018-.029c-.003-.01-.002-.021.002-.032s.012-.02.022-.028.023-.014.037-.018c.236-.036.498-.19.698-.091.326.162.68-.014 1.012.115a2.52 2.52 0 0 0 1.067.141 2.53 2.53 0 0 1 .41.014c.13.014.235.065.226.168s-.136.139-.264.137c-.365-.015-.727-.052-1.082-.111l-1.474-.182-.008.034zm1.317 2.31a18.9 18.9 0 0 0-1.98-.141c-.209 0-.477-.063-.451-.249.029-.218.291-.137.509-.135.68 0 1.314.202 1.991.202.155 0 .341.01.332.156s-.204.166-.401.168zM166.3 1.533a8.9 8.9 0 0 0-1.526 0c-.172 0-.422.028-.425-.156s.221-.222.431-.202a12.41 12.41 0 0 0 2.276-.016c.145-.014.291-.01.328.111s-.101.141-.206.186c-.253.099-.538.046-.878.077zM62.789 24.268c.392.107 1.006-.089 1.163.358.064.176-.486.384-.898.368-.187-.019-.361-.079-.496-.171s-.224-.212-.254-.342c.023-.152.186-.228.485-.212zM161.55.553c-.506-.123-1.021.055-1.541 0-.148-.014-.352 0-.349-.143s.198-.105.329-.121a17.6 17.6 0 0 1 2.29-.115c.134 0 .323-.014.355.097s-.154.182-.291.202c-.255.044-.517.055-.793.081zm22.03 5.174a9.75 9.75 0 0 1-1.68-.097c-.14-.01-.291-.036-.274-.166s.181-.152.346-.148l1.817.057c.192 0 .46 0 .457.184s-.265.202-.486.18l-.18-.01zm11.445-2.139l-1.514-.087c-.195-.012-.396-.067-.399-.214s.236-.143.39-.15c.648-.032 1.267.141 1.916.145.035-.003.072-.001.106.006s.066.019.093.035a.21.21 0 0 1 .066.059.14.14 0 0 1 .025.072c0 .133-.174.125-.311.131l-.372.002zm-24.92 1.892c-.54-.073-1.072.059-1.607-.016-.148-.022-.337.012-.352-.135s.163-.19.311-.19c.561 0 1.116-.135 1.68-.028.169.032.425 0 .39.188-.026.154-.244.17-.422.182zM144.424.806h-.648c-.123 0-.262-.024-.253-.137s.128-.129.258-.148c.716-.095 1.454.016 2.157-.069a.28.28 0 0 1 .081 0c.027.004.052.012.074.023s.04.026.053.042.022.035.025.054c.02.123-.102.168-.25.184a8.93 8.93 0 0 1-1.497.051zm-37.328.828a1.71 1.71 0 0 0-.796 0 .75.75 0 0 1-.207-.009.62.62 0 0 1-.186-.064c-.049-.015-.089-.043-.112-.077a.11.11 0 0 1-.01-.109.13.13 0 0 1 .038-.05c.017-.015.039-.026.063-.035a.27.27 0 0 1 .078-.014.27.27 0 0 1 .08.009c.581.148 1.134-.071 1.703-.075.201 0 .495-.069.503.148s-.27.202-.485.172-.413.119-.669.103zm90.502 14.647c-.35.009-.7-.019-1.038-.083-.104-.028-.2-.069-.197-.156 0-.038.023-.075.062-.102s.092-.043.147-.043c.625-.034 1.247.099 1.878.016.073-.01.134.045.142.105.002.042-.014.083-.046.119a.3.3 0 0 1-.131.083c-.27.131-.567.059-.817.061zM173.527 1.258c0 .176-.171.228-.401.166s-.34-.107-.451.099c-.09.172-.29.143-.392-.01s-.166-.269-.425-.287c-.019 0-.038-.004-.055-.01a.13.13 0 0 1-.045-.026c-.011-.011-.019-.023-.023-.037s-.003-.027.001-.04a.14.14 0 0 1 .05-.048c.021-.013.047-.022.075-.027l1.227-.063a.58.58 0 0 1 .165.015.47.47 0 0 1 .143.06.32.32 0 0 1 .096.094c.022.035.035.074.035.113zm21.167 9.304l1.262.139c.127.016.241.065.232.168s-.166.152-.305.141l-1.454-.111c-.16-.016-.378-.057-.36-.202.023-.188.267-.127.439-.137l.186.002zm-20.769-9.283c-.058-.273.114-.36.445-.297l.916.202c.137.032.253.091.218.202s-.154.125-.291.131c-.375.016-.738-.067-1.131 0-.226.051-.122-.158-.157-.238zm7.916-1.043a8.66 8.66 0 0 0 .969.04.32.32 0 0 1 .092.004c.03.006.058.016.083.029s.044.031.058.05.023.04.025.062c.024.091-.078.129-.18.16-.088.043-.188.071-.294.082a.97.97 0 0 1-.316-.019 1.03 1.03 0 0 0-.31-.047 1.03 1.03 0 0 0-.31.047c-.247.061-.508.032-.581-.152-.073-.234.27-.168.445-.212a2.07 2.07 0 0 1 .319-.044zm-68.224 1.227l-1.279-.073c-.122 0-.268-.02-.265-.133s.137-.137.256-.152a.92.92 0 0 1 .314 0c.424.103.885.103 1.308 0 .215-.042.483-.055.518.137s-.256.172-.439.192c-.138.007-.276.007-.413 0v.028zm38.54 4.029c-.387.026-.654-.129-.965-.176-.046-.007-.086-.026-.113-.053s-.037-.06-.03-.092c0-.075.096-.103.183-.123s.131-.04.178-.028c.453.135.889.245 1.383.055.123-.048.253.103.265.216.017.154-.145.125-.291.119-.215-.008-.398.164-.61.083zm29.237 11.62l-1.082-.03c-.131 0-.261-.014-.27-.123s.125-.16.291-.156l1.776.055c.134 0 .314 0 .314.131s-.192.103-.317.119a2.69 2.69 0 0 1-.712.004z"/><path d="M200.36 16.811l-1.518-.032c-.168 0-.378-.02-.354-.18s.244-.133.404-.123l1.695.123c.145.01.369-.01.363.129 0 .172-.224.079-.36.081l-.23.002zm-97.505-15.5c.291.04.625-.055.84.164.052.051.128.105.084.172s-.133.032-.206.038c-.441.016-.883.004-1.32-.036-.16 0-.323-.044-.331-.174s.171-.123.29-.15a2.04 2.04 0 0 1 .643-.014zm64.71 15.93l1.229.077c.463.018.526.348.788.521.05.034 0 .103-.087.123a.24.24 0 0 1-.067.011c-.024.001-.047-.002-.069-.008a.2.2 0 0 1-.059-.025.14.14 0 0 1-.041-.039c-.107-.226-.375-.236-.633-.218-.521.038-.678-.331-1.061-.443zM101.006 1.697h-.872c-.166 0-.372-.04-.343-.202s.221-.166.392-.15a3.95 3.95 0 0 0 .773 0c.25-.024.617-.061.62.18s-.346.143-.57.172zm85.911 15.613l-.724-.052c-.157-.018-.29-.091-.258-.22s.195-.097.334-.091l1.047.04c.186 0 .407.016.392.19s-.244.142-.421.133l-.367-.014-.003.014zm10.568-13.602c-.582.117-.657-.218-.872-.436-.035-.038-.053-.081 0-.111a.25.25 0 0 1 .129-.028c.046.002.091.016.124.04.136.093.247.145.412.018.102-.079.221-.044.291.046a.8.8 0 0 0 .113.137c.096.085.375.095.291.242s-.32.071-.488.091zm-37.27 15.503a11.52 11.52 0 0 1 1.454-.18.5.5 0 0 1 .149-.007c.049.005.097.018.139.037a.33.33 0 0 1 .104.074c.026.03.043.063.05.097.02.202-.23.164-.401.168-.489.02-.986.053-1.495-.19zm46.227-12.816l1.005.087c.043.001.085.009.123.023a.29.29 0 0 1 .097.057c.026.024.044.051.052.08a.14.14 0 0 1-.001.088c-.047.123-.215.097-.352.077-.343-.051-.709 0-1.038-.113-.122-.04-.29-.077-.235-.202s.183-.095.349-.097zm-36.165-5.322h.093c.203.014.5-.036.523.164s-.29.152-.485.186l-.582.067c-.186.02-.351-.012-.386-.154s.13-.202.29-.232l.544-.04.003.01zm19.469 2.103h-.474a.29.29 0 0 1-.089-.017c-.027-.01-.051-.025-.07-.042s-.031-.037-.037-.059-.006-.043.001-.064c.001-.019.009-.037.022-.054s.032-.031.055-.041.049-.017.076-.019a.24.24 0 0 1 .08.007c.456.123.942 0 1.401.097.163.034.372.03.291.202-.055.129-.233.137-.381.085a3.37 3.37 0 0 0-.875-.095zm4.314 12.703l1.89-.093a.27.27 0 0 1 .081.002c.027.005.052.013.073.025a.16.16 0 0 1 .052.044c.012.017.019.036.021.055s.004.048-.005.072-.024.045-.045.064-.048.035-.079.046-.064.018-.098.02c-.596-.016-1.215.047-1.89-.234zm31.394-4.361c.477 0 .899.222 1.396.232a.22.22 0 0 1 .075.02c.022.011.041.025.054.042s.02.035.021.054-.005.038-.017.055-.02.035-.037.05-.039.027-.063.036a.27.27 0 0 1-.078.017.29.29 0 0 1-.08-.006l-1.608-.311c-.076-.014-.16-.053-.105-.113.114-.113.277-.051.442-.077zm-87.092-3.781c.314 0 .666.182 1.012-.022.082-.046.209.012.253.091.014.019.022.041.023.062s-.003.043-.013.064-.027.039-.048.055-.047.029-.075.038a1.58 1.58 0 0 1-.753.073l-.489-.085c-.162-.03-.401.03-.366-.15.029-.141.262-.109.456-.125z"/></svg>