<svg xmlns="http://www.w3.org/2000/svg" width="57" height="93" viewBox="0 0 57 93" fill="none">
<path d="M50.4723 90.0076L11.8281 68.2573C10.2603 67.3797 8.95541 66.0988 8.04853 64.5473C7.14165 62.9958 6.66574 61.2301 6.66995 59.4329V4.83875C6.67031 3.99409 6.89161 3.16427 7.31181 2.43165C7.73201 1.69903 8.33647 1.08912 9.06521 0.66257C9.79396 0.236024 10.6216 0.00769395 11.4659 0.000191035C12.3102 -0.00731188 13.1417 0.206313 13.8779 0.619841L52.9086 22.6222C54.0738 23.2834 55.0434 24.2412 55.7191 25.3984C56.3949 26.5555 56.7527 27.8709 56.7561 29.2111V86.2761C56.746 87.0096 56.5479 87.7282 56.1807 88.3632C55.8135 88.9982 55.2895 89.5283 54.659 89.9027C54.0284 90.2772 53.3123 90.4834 52.5793 90.5017C51.8462 90.5201 51.1208 90.35 50.4723 90.0076Z" fill="#3F85CD"/>
<path d="M10.3159 0.132324L2.6543 2.63679L9.42542 4.95637L10.3159 0.132324Z" fill="#3F85CD"/>
<path d="M53.9506 90.3099L46.625 92.6127L47.4987 82.6284L53.9506 90.3099Z" fill="#3F85CD"/>
<path d="M43.7855 92.1085L5.14136 70.3582C3.57921 69.4798 2.27941 68.2006 1.37572 66.6525C0.472035 65.1044 -0.00287241 63.3433 1.30708e-05 61.5506V6.95647C0.000375014 6.11182 0.221674 5.28194 0.641874 4.54933C1.06207 3.81671 1.66663 3.20684 2.39538 2.7803C3.12412 2.35375 3.95169 2.12537 4.79597 2.11787C5.64025 2.11036 6.47185 2.32399 7.20805 2.73752L46.2218 24.7399C47.3882 25.3997 48.3588 26.3572 49.0347 27.5147C49.7107 28.6722 50.0678 29.9883 50.0695 31.3288V88.4778C50.0472 89.2046 49.8396 89.9136 49.4666 90.5376C49.0936 91.1617 48.5676 91.6801 47.9382 92.0438C47.3088 92.4074 46.597 92.6042 45.8703 92.6155C45.1435 92.6268 44.4259 92.4523 43.7855 92.1085Z" fill="#9BCCEA"/>
<path d="M11.8113 34.1864C13.5318 35.114 14.9403 36.529 15.8605 38.254L13.6762 40.7249C13.2563 39.872 12.604 39.1553 11.7945 38.6574C9.76143 37.6321 8.43414 39.0272 8.16531 42.1872C7.89648 45.3472 9.22379 48.0702 11.072 48.9947C11.4793 49.2068 11.9317 49.3175 12.3909 49.3175C12.8501 49.3175 13.3026 49.2068 13.7099 48.9947L15.1716 53.3817C14.4116 53.7547 13.5699 53.9302 12.7242 53.892C11.8785 53.8538 11.056 53.6032 10.3327 53.1632C6.36748 51.1461 3.49438 46.0868 3.83041 40.0525C4.16645 34.0183 7.91325 32.203 11.8113 34.1864Z" fill="#3F85CD"/>
<path d="M26.043 39.1784L25.6566 45.9691L30.7139 48.5408L30.4955 52.3731L25.4381 49.8014L25.0517 56.5921L21.9602 55.0121L22.3466 48.2214L17.2725 45.6665L17.4909 41.8342L22.565 44.3891L22.9515 37.6152L26.043 39.1784Z" fill="#3F85CD"/>
<path d="M41.2149 46.8769L40.8284 53.7011L45.8858 56.2897L45.6673 60.1388L40.61 57.5503L40.2236 64.3577L37.132 62.7609L37.5185 55.9535L32.4443 53.365L32.6628 49.5326L37.7369 52.1043L38.1065 45.2969L41.2149 46.8769Z" fill="#3F85CD"/>
</svg>