<svg xmlns="http://www.w3.org/2000/svg" width="57" height="93" viewBox="0 0 57 93" fill="none">
<path d="M50.4223 90.0076L11.8621 68.2573C10.2975 67.3775 8.996 66.0957 8.09216 64.5444C7.18832 62.9931 6.71488 61.2285 6.72076 59.4329V4.8388C6.72112 3.99414 6.94242 3.16427 7.36262 2.43165C7.78282 1.69903 8.38727 1.08917 9.11602 0.662622C9.84477 0.236075 10.6724 0.00769395 11.5167 0.000191035C12.361 -0.00731188 13.1926 0.206313 13.9288 0.619841L52.9425 22.639C54.1088 23.2948 55.0798 24.249 55.7559 25.4039C56.432 26.5588 56.7889 27.8728 56.7901 29.2112V86.2761C56.7877 87.0216 56.591 87.7535 56.2194 88.3997C55.8478 89.0459 55.3142 89.5839 54.6712 89.9607C54.0282 90.3375 53.2981 90.54 52.553 90.5482C51.8078 90.5564 51.0734 90.3701 50.4223 90.0076Z" fill="#813CB8"/>
<path d="M10.2991 0.132324L2.6543 2.63679L9.42542 4.95636L10.2991 0.132324Z" fill="#813CB8"/>
<path d="M53.9498 90.3099L46.6074 92.6127L47.4811 82.6284L53.9498 90.3099Z" fill="#813CB8"/>
<path d="M43.7015 92.1087L5.14136 70.3584C3.57921 69.48 2.27941 68.2008 1.37572 66.6527C0.472035 65.1046 -0.00287241 63.3435 1.30708e-05 61.5508V6.95667C0.000375014 6.11201 0.221674 5.28219 0.641874 4.54957C1.06207 3.81695 1.66653 3.20704 2.39528 2.78049C3.12402 2.35394 3.95169 2.12561 4.79597 2.11811C5.64025 2.11061 6.47185 2.32423 7.20805 2.73776L46.289 24.7737C47.4565 25.4322 48.4282 26.3894 49.1043 27.5472C49.7804 28.705 50.1367 30.0218 50.1366 31.3627V88.5117C50.1226 89.2575 49.9135 89.9867 49.5301 90.6265C49.1466 91.2664 48.6023 91.7945 47.9513 92.1584C47.3003 92.5222 46.5654 92.7091 45.8198 92.7004C45.0742 92.6917 44.3438 92.4877 43.7015 92.1087Z" fill="#A75BCE"/>
<path d="M11.4081 31.4971C13.2549 32.5097 14.7714 34.0326 15.7765 35.8841L13.4579 38.3718C13.01 37.4654 12.3174 36.7026 11.4584 36.1699C9.2742 35.0437 7.7284 36.4892 7.54358 39.8341C7.35876 43.179 8.68617 46.0701 10.652 47.0954C11.0946 47.3199 11.5838 47.4368 12.0801 47.4368C12.5763 47.4368 13.0657 47.3199 13.5083 47.0954L15.0709 51.7682C14.245 52.1423 13.3402 52.3088 12.4353 52.2531C11.5304 52.1975 10.6529 51.9213 9.87906 51.4488C5.5946 49.2301 2.5031 43.8177 2.87274 37.4305C3.24238 31.0433 7.17403 29.2448 11.4081 31.4971Z" fill="#541595"/>
<path d="M24.0765 37.918C26.2615 39.1768 28.08 40.9845 29.3523 43.1622L27.1009 45.5658C26.3416 44.2069 25.2633 43.0532 23.9589 42.2041C22.7996 41.6158 22.1779 41.8848 22.1275 42.8428C22.1275 44.0867 23.4717 45.2969 25.0006 46.8433C26.1812 47.8142 27.1346 49.0322 27.7936 50.4117C28.4526 51.7912 28.8012 53.2985 28.8147 54.8273C28.613 58.3403 26.2608 59.8699 22.0939 57.8024C19.7278 56.3902 17.7524 54.4083 16.3477 52.0371L18.5991 49.5158C19.5154 51.1812 20.8392 52.5866 22.4467 53.6003C23.8077 54.3062 24.4294 53.9701 24.4798 52.9448C24.5302 51.9195 23.0684 50.3058 21.5395 48.709C19.7081 46.8264 17.6079 44.1203 17.7927 40.9266C18.0615 37.3464 20.5314 36.1026 24.0765 37.918Z" fill="#541595"/>
<path d="M37.7864 44.9438C39.9725 46.2085 41.791 48.0219 43.0622 50.2048L40.8108 52.6085C40.0515 51.2495 38.9731 50.0958 37.6688 49.2467C36.5095 48.6416 35.8878 48.9106 35.8374 49.8855C35.8374 51.1293 37.1815 52.3395 38.7273 53.9027C39.9048 54.8826 40.8546 56.1076 41.5104 57.4924C42.1662 58.8771 42.5123 60.3882 42.5245 61.9204C42.3229 65.4334 39.9707 66.9629 35.8038 64.8955C33.4367 63.4699 31.4619 61.477 30.0576 59.0966L32.3258 56.5753C33.2369 58.2435 34.5547 59.6542 36.1567 60.6765C37.5176 61.3993 38.1392 61.0463 38.1896 60.021C38.24 58.9957 36.7783 57.3653 35.2493 55.7516C33.4179 53.8691 31.3177 51.1461 31.5025 47.9357C31.7714 44.4227 34.2412 43.1621 37.7864 44.9438Z" fill="#541595"/>
</svg>