<svg xmlns="http://www.w3.org/2000/svg" width="58" height="93" viewBox="0 0 58 93" fill="none">
<path d="M50.8783 90.2689L12.3182 68.5187C10.7535 67.6389 9.45205 66.357 8.54821 64.8057C7.64437 63.2544 7.17093 61.4898 7.17681 59.6942V5.10011C7.17507 4.25494 7.39531 3.42414 7.81549 2.69091C8.23568 1.95769 8.84101 1.34774 9.57095 0.922193C10.3009 0.496651 11.1298 0.270427 11.9746 0.266174C12.8194 0.261922 13.6506 0.479809 14.3847 0.897982L53.3986 22.9003C54.5673 23.5575 55.5399 24.5144 56.2162 25.6725C56.8924 26.8306 57.2479 28.1481 57.2462 29.4893V86.5374C57.2488 87.2849 57.0552 88.0198 56.6848 88.6689C56.3144 89.318 55.7802 89.8585 55.1355 90.2363C54.4908 90.614 53.7584 90.8159 53.0113 90.8216C52.2642 90.8273 51.5287 90.6368 50.8783 90.2689Z" fill="#813CB8"/>
<path d="M10.722 0.393799L3.07715 2.89827L9.8483 5.21784L10.722 0.393799Z" fill="#813CB8"/>
<path d="M54.3725 90.5714L47.0469 92.8742L47.9206 82.8899L54.3725 90.5714Z" fill="#813CB8"/>
<path d="M44.1909 92.3699L5.6307 70.6365C4.06605 69.7566 2.76459 68.4749 1.86075 66.9235C0.95691 65.3722 0.48347 63.6076 0.489347 61.812V7.20112C0.484141 6.34558 0.705698 5.50393 1.13141 4.76191C1.55713 4.01989 2.17186 3.40403 2.91291 2.97698C3.65397 2.54993 4.49492 2.32699 5.35012 2.33086C6.20532 2.33473 7.04421 2.56525 7.78138 2.99898L46.8119 25.0013C47.9752 25.6633 48.9425 26.6218 49.6153 27.7791C50.2882 28.9364 50.6428 30.2514 50.6428 31.5903V88.6552C50.6511 89.4136 50.4574 90.1605 50.0815 90.8191C49.7057 91.4777 49.1612 92.0243 48.5041 92.4026C47.8471 92.7809 47.1012 92.9773 46.3431 92.9715C45.585 92.9658 44.8421 92.7581 44.1909 92.3699Z" fill="#A75BCE"/>
<g style="mix-blend-mode:multiply">
<path d="M12.8218 32.9182C15.9301 34.5991 17.6607 38.7676 17.3583 43.7597C17.0391 49.3065 14.2331 51.1051 11.444 49.6427C10.1498 48.8369 9.12126 47.6678 8.48691 46.281V48.9031L8.21812 53.6263L4.4209 51.6934L5.71467 29.6069L8.82296 31.2878L9.00776 32.9686H9.10857C9.67085 32.6413 10.3081 32.4647 10.9586 32.4559C11.6091 32.4471 12.2508 32.6063 12.8218 32.9182ZM10.7887 45.2557C12.1161 45.9617 13.2587 45.1044 13.4603 41.7595C13.6283 38.8684 13.0066 37.0363 11.4777 36.2463C11.1109 36.0483 10.6911 35.971 10.2778 36.0253C9.86462 36.0796 9.47904 36.2628 9.17584 36.5489L8.80615 43.1714C9.25066 44.0441 9.93957 44.7683 10.7887 45.2557Z" fill="#813CB8"/>
<path d="M24.5835 32.5485L24.2643 38.1289L23.9114 40.9864C24.5021 40.5875 25.1919 40.3606 25.9039 40.3309C26.6158 40.3013 27.3221 40.47 27.9439 40.8183C30.733 42.2974 31.7915 45.407 31.5563 49.4579L30.9682 59.543L27.171 57.526L27.7086 48.0964C27.843 45.76 27.3894 44.7347 26.2805 44.1968C25.8905 43.9835 25.4428 43.8995 25.002 43.9569C24.5612 44.0143 24.1499 44.2101 23.8274 44.5162L23.1889 55.4417L19.375 53.4247L20.7023 30.5819L24.5835 32.5485Z" fill="#813CB8"/>
<path d="M42.2925 48.3317C45.4008 50.0125 47.1146 54.2483 46.829 59.2572C46.5098 64.8544 43.7038 66.6529 40.9147 65.1906C39.6293 64.3745 38.6035 63.2082 37.9577 61.8289V64.4678L37.6888 69.2246L33.8916 67.2076L35.1686 44.9531L38.277 46.634L38.4617 48.3148C39.0467 47.9843 39.7076 47.812 40.3793 47.815C41.0511 47.8179 41.7105 47.996 42.2925 48.3317ZM40.2596 60.77C41.5869 61.4759 42.7462 60.6187 42.931 57.257C43.099 54.3491 42.4605 52.5002 40.9484 51.6934C40.5847 51.488 40.1648 51.4049 39.7504 51.4564C39.336 51.5078 38.949 51.6911 38.6465 51.9791L38.2601 58.7025C38.7118 59.5843 39.4054 60.3189 40.2596 60.8204" fill="#813CB8"/>
</g>
</svg>