<svg xmlns="http://www.w3.org/2000/svg" width="92" height="91" viewBox="0 0 92 91" fill="none">
<g filter="url(#filter0_b_107_822)">
<rect x="1" width="90" height="90" rx="45" fill="url(#paint0_radial_107_822)" fill-opacity="0.3"/>
<rect x="1" width="90" height="90" rx="45" stroke="url(#paint1_linear_107_822)" stroke-width="2"/>
</g>
<path d="M43.6165 21.0917L45.0292 23.7451C45.3468 24.2347 45.6909 24.6681 46.0962 25.0718C47.2844 26.2451 48.3919 27.4975 49.4113 28.8202C51.8049 31.9633 53.4195 35.4537 54.5725 39.2287C55.2639 41.5347 55.6394 43.9002 55.6676 46.2922C55.7834 53.4435 53.3318 59.584 48.3889 64.6873C47.5849 65.4965 46.7164 66.239 45.7918 66.9072C45.3022 66.9072 45.0706 66.5317 44.8687 66.186C44.5012 65.5449 44.2566 64.8408 44.1475 64.1099C43.9738 63.2448 43.8597 62.3796 43.9159 61.4863V61.0827C43.8762 60.9967 43.4445 21.2951 43.6165 21.0917Z" fill="#599636"/>
<path d="M43.6167 21.004C43.5588 20.8882 43.5009 20.9759 43.443 21.0321C43.4712 21.6111 43.2693 22.1272 42.9534 22.6202C42.606 23.1098 42.1461 23.4853 41.6846 23.889C39.1205 26.1089 37.1024 28.7905 35.4862 31.7896C33.3357 35.8259 32.2273 40.1517 31.913 44.7058C31.7691 46.3485 32.4325 52.1449 32.9502 53.8173C34.363 58.2573 36.9005 61.9776 40.1875 65.2067C40.9948 65.9842 41.8583 66.7054 42.7516 67.3985C43.0113 67.3985 43.0394 67.1669 43.0989 66.9949C43.2128 66.6268 43.2996 66.2508 43.3587 65.87L43.9376 61.5459L43.6167 21.004Z" fill="#6CAC48"/>
<path d="M45.0293 68.6641C45.0872 68.0024 45.4049 67.4532 45.7506 66.9056C45.4032 66.7617 45.1451 66.4755 44.9433 66.1563C44.7693 65.854 44.6252 65.5354 44.5132 65.2051C44.1096 63.9942 44.0236 62.7237 43.9078 61.4864V60.737C43.7639 60.8528 43.7341 61.8321 43.7341 61.9777C43.6499 63.2855 43.4764 64.586 43.2146 65.8701C43.1286 66.3895 43.0707 66.9073 42.7515 67.3688C42.7515 67.4267 42.7515 67.4846 42.7796 67.5706C43.299 69.0991 43.4413 70.6558 43.529 72.2422V72.8212C43.529 73.5126 43.5008 73.367 44.0748 73.5986C44.3064 73.6847 44.5645 73.7144 44.7961 73.8865C44.9698 73.8865 44.9979 73.7426 44.9979 73.6268L44.9119 72.6756V70.0222C44.8838 69.559 44.9698 69.0991 45.0277 68.6657L45.0293 68.6641Z" fill="#C2BFBF"/>
<defs>
<filter id="filter0_b_107_822" x="-24" y="-25" width="140" height="140" filterUnits="userSpaceOnUse" color-interpolation-filters="sRGB">
<feFlood flood-opacity="0" result="BackgroundImageFix"/>
<feGaussianBlur in="BackgroundImageFix" stdDeviation="12"/>
<feComposite in2="SourceAlpha" operator="in" result="effect1_backgroundBlur_107_822"/>
<feBlend mode="normal" in="SourceGraphic" in2="effect1_backgroundBlur_107_822" result="shape"/>
</filter>
<radialGradient id="paint0_radial_107_822" cx="0" cy="0" r="1" gradientUnits="userSpaceOnUse" gradientTransform="translate(1) rotate(45) scale(127.279)">
<stop offset="0.53" stop-color="#6CAC48"/>
<stop offset="1" stop-color="#F7F7F7" stop-opacity="0"/>
</radialGradient>
<linearGradient id="paint1_linear_107_822" x1="46" y1="90" x2="46" y2="0" gradientUnits="userSpaceOnUse">
<stop stop-color="#6CAC48"/>
<stop offset="1" stop-color="white" stop-opacity="0"/>
</linearGradient>
</defs>
</svg>