<svg xmlns="http://www.w3.org/2000/svg" width="92" height="92" viewBox="0 0 92 92" fill="none">
<g filter="url(#filter0_b_107_803)">
<rect x="1" y="1" width="90" height="90" rx="45" fill="url(#paint0_radial_107_803)" fill-opacity="0.4"/>
<rect x="1" y="1" width="90" height="90" rx="45" stroke="url(#paint1_linear_107_803)" stroke-width="2"/>
</g>
<path d="M43.6989 18.0148C43.5806 18.0256 43.2043 18.0632 42.8656 18.0901C35.0538 18.7944 27.7366 23.0094 23.1022 29.4879C20.5215 33.0901 18.871 37.1761 18.2473 41.504C18.0269 43.0148 18 43.461 18 45.5094C18 47.5578 18.0269 48.004 18.2473 49.5148C19.7419 59.8428 27.0914 68.5202 37.0591 71.7352C38.8441 72.3105 40.7258 72.703 42.8656 72.9395C43.6989 73.0309 47.3011 73.0309 48.1344 72.9395C51.828 72.5309 54.957 71.617 58.043 70.0417C58.5161 69.7997 58.6075 69.7352 58.543 69.6815C58.5 69.6492 56.4839 66.9449 54.0645 63.6761L49.6667 57.7352L44.1559 49.5793C41.1237 45.0954 38.629 41.4288 38.6075 41.4288C38.586 41.4234 38.5645 45.0471 38.5538 49.4718C38.5376 57.2191 38.5323 57.5309 38.4355 57.7137C38.2957 57.9772 38.1882 58.0847 37.9624 58.203C37.7903 58.289 37.6398 58.3051 36.828 58.3051H35.8978L35.6505 58.1492C35.4892 58.0471 35.371 57.9127 35.2903 57.7567L35.1774 57.5148L35.1882 46.7352L35.2043 35.9503L35.371 35.7406C35.457 35.6277 35.6398 35.4825 35.7688 35.4127C35.9892 35.3051 36.0753 35.2944 37.0054 35.2944C38.1022 35.2944 38.2849 35.3374 38.5699 35.6492C38.6505 35.7352 41.6344 40.2299 45.2043 45.6438C48.7742 51.0578 53.6559 58.4503 56.0538 62.0793L60.4086 68.6761L60.629 68.5309C62.5806 67.2621 64.6452 65.4557 66.2796 63.5739C69.7581 59.5793 72 54.7084 72.7527 49.5148C72.9731 48.004 73 47.5578 73 45.5094C73 43.461 72.9731 43.0148 72.7527 41.504C71.2581 31.1761 63.9086 22.4987 53.9409 19.2836C52.1828 18.7137 50.3118 18.3213 48.2151 18.0847C47.6989 18.0309 44.1452 17.9718 43.6989 18.0148ZM54.957 34.6492C55.2151 34.7782 55.4247 35.0256 55.5 35.2836C55.543 35.4234 55.5538 38.4126 55.543 45.1492L55.5269 54.8159L53.8226 52.203L52.1129 49.5901V42.5632C52.1129 38.0202 52.1344 35.4664 52.1667 35.3428C52.2527 35.0417 52.4409 34.8051 52.6989 34.6653C52.9194 34.5524 53 34.5417 53.8441 34.5417C54.6398 34.5417 54.7796 34.5524 54.957 34.6492Z" fill="black"/>
<defs>
<filter id="filter0_b_107_803" x="-24" y="-24" width="140" height="140" filterUnits="userSpaceOnUse" color-interpolation-filters="sRGB">
<feFlood flood-opacity="0" result="BackgroundImageFix"/>
<feGaussianBlur in="BackgroundImageFix" stdDeviation="12"/>
<feComposite in2="SourceAlpha" operator="in" result="effect1_backgroundBlur_107_803"/>
<feBlend mode="normal" in="SourceGraphic" in2="effect1_backgroundBlur_107_803" result="shape"/>
</filter>
<radialGradient id="paint0_radial_107_803" cx="0" cy="0" r="1" gradientUnits="userSpaceOnUse" gradientTransform="translate(1 1) rotate(45) scale(127.279)">
<stop offset="0.53"/>
<stop offset="1" stop-color="#F7F7F7" stop-opacity="0"/>
</radialGradient>
<linearGradient id="paint1_linear_107_803" x1="46" y1="91" x2="46" y2="1" gradientUnits="userSpaceOnUse">
<stop/>
<stop offset="1" stop-color="white" stop-opacity="0"/>
</linearGradient>
</defs>
</svg>