<svg xmlns="http://www.w3.org/2000/svg" width="92" height="92" viewBox="0 0 92 92" fill="none">
<g filter="url(#filter0_b_107_800)">
<rect x="1" y="1" width="90" height="90" rx="45" fill="url(#paint0_radial_107_800)" fill-opacity="0.4"/>
<rect x="1" y="1" width="90" height="90" rx="45" stroke="url(#paint1_linear_107_800)" stroke-width="2"/>
</g>
<g clip-path="url(#clip0_107_800)">
<path d="M22.8687 22.8694H69.1303V69.1311H22.8687V22.8694Z" fill="#017ACB"/>
<path d="M45.0814 40.0007H47.3005V43.8317H41.301V60.8762L41.1419 60.9196C40.9251 60.9774 38.0699 60.9774 37.4554 60.9124L36.9639 60.869V43.8317H30.9644V40.0007L32.8654 39.979C33.9063 39.9645 36.5808 39.9645 38.8072 39.979C41.0335 39.9934 43.8526 40.0007 45.0814 40.0007ZM62.0175 59.0691C61.1356 60.0016 60.1887 60.522 58.6129 60.9485C57.9262 61.1365 57.8106 61.1437 56.2637 61.1365C54.7168 61.1292 54.594 61.1292 53.8422 60.9341C51.8978 60.4353 50.3292 59.4595 49.2594 58.0789C48.9558 57.6885 48.4571 56.8789 48.4571 56.7777C48.4571 56.7488 48.5293 56.6838 48.6233 56.6404C48.7173 56.597 48.9124 56.4742 49.0715 56.3802C49.2305 56.2862 49.5196 56.1127 49.7148 56.0115C49.91 55.9103 50.4738 55.5778 50.9653 55.2815C51.4568 54.9851 51.905 54.7466 51.9556 54.7466C52.0062 54.7466 52.1002 54.8478 52.1724 54.9706C52.6061 55.7007 53.6181 56.6332 54.3337 56.9512C54.7747 57.1392 55.7505 57.3488 56.2203 57.3488C56.654 57.3488 57.4492 57.1609 57.8756 56.9657C58.331 56.7561 58.5623 56.5464 58.837 56.1272C59.025 55.8308 59.0466 55.7513 59.0394 55.1875C59.0394 54.6671 59.0105 54.5225 58.8659 54.284C58.4611 53.6189 57.9118 53.272 55.6854 52.2889C53.3868 51.2697 52.3532 50.6625 51.5147 49.8457C50.893 49.2385 50.7701 49.0723 50.3798 48.3133C49.8738 47.3375 49.8088 47.0194 49.8015 45.5665C49.7943 44.5473 49.816 44.2148 49.9244 43.8678C50.0762 43.3474 50.5677 42.3427 50.7918 42.0897C51.2544 41.5475 51.4207 41.3813 51.746 41.1138C52.729 40.3042 54.2615 39.7693 55.7288 39.7188C55.8951 39.7188 56.4444 39.7477 56.9576 39.7838C58.4322 39.9067 59.437 40.2681 60.4056 41.0415C61.1356 41.6198 62.2416 42.9788 62.1332 43.1595C62.0609 43.2679 59.1768 45.1906 58.9888 45.2485C58.8732 45.2846 58.7937 45.2412 58.6346 45.0533C57.6516 43.8751 57.254 43.6221 56.2999 43.5643C55.6204 43.5209 55.259 43.6004 54.8036 43.904C54.3265 44.222 54.0952 44.7063 54.0952 45.3786C54.1024 46.3616 54.4783 46.8243 55.8662 47.511C56.7625 47.9519 57.5287 48.3133 57.5865 48.3133C57.6733 48.3133 59.5309 49.2385 60.0153 49.5277C62.2705 50.8505 63.1885 52.2094 63.427 54.5514C63.6005 56.3151 63.1018 57.9271 62.0175 59.0691Z" fill="white"/>
</g>
<defs>
<filter id="filter0_b_107_800" x="-24" y="-24" width="140" height="140" filterUnits="userSpaceOnUse" color-interpolation-filters="sRGB">
<feFlood flood-opacity="0" result="BackgroundImageFix"/>
<feGaussianBlur in="BackgroundImageFix" stdDeviation="12"/>
<feComposite in2="SourceAlpha" operator="in" result="effect1_backgroundBlur_107_800"/>
<feBlend mode="normal" in="SourceGraphic" in2="effect1_backgroundBlur_107_800" result="shape"/>
</filter>
<radialGradient id="paint0_radial_107_800" cx="0" cy="0" r="1" gradientUnits="userSpaceOnUse" gradientTransform="translate(1 1) rotate(45) scale(127.279)">
<stop offset="0.53" stop-color="#017ACB"/>
<stop offset="1" stop-color="#F7F7F7" stop-opacity="0"/>
</radialGradient>
<linearGradient id="paint1_linear_107_800" x1="46" y1="91" x2="46" y2="1" gradientUnits="userSpaceOnUse">
<stop stop-color="#017ACB"/>
<stop offset="1" stop-color="white" stop-opacity="0"/>
</linearGradient>
<clipPath id="clip0_107_800">
<rect width="46.2617" height="46.2617" fill="white" transform="translate(22.8687 22.8694)"/>
</clipPath>
</defs>
</svg>